<mxfile host="Electron" agent="Mozilla/5.0 (Windows NT 10.0; Win64; x64) AppleWebKit/537.36 (KHTML, like Gecko) draw.io/25.0.2 Chrome/128.0.6613.186 Electron/32.2.5 Safari/537.36" version="25.0.2">
  <diagram name="Page-1" id="YJVX424GzOCI8uoXoQTf">
    <mxGraphModel dx="900" dy="1035" grid="1" gridSize="10" guides="1" tooltips="1" connect="1" arrows="1" fold="1" page="1" pageScale="1" pageWidth="850" pageHeight="1100" math="0" shadow="0">
      <root>
        <mxCell id="0" />
        <mxCell id="1" parent="0" />
        <mxCell id="Z5x_Mi_MXpCfe0cvQZrA-4" value="" style="rounded=0;whiteSpace=wrap;html=1;arcSize=1;strokeWidth=4;strokeColor=#999999;fillStyle=dashed;fillColor=#D1D1D1;dashed=1;" parent="1" vertex="1">
          <mxGeometry x="1070" y="540" width="620" height="613" as="geometry" />
        </mxCell>
        <mxCell id="MfL6retrx8ds7Df4Rlp2-4" value="&lt;font color=&quot;#999900&quot; face=&quot;Lucida Console&quot;&gt;&lt;span style=&quot;font-size: 30px;&quot;&gt;&lt;b style=&quot;&quot;&gt;x&lt;/b&gt;&lt;/span&gt;&lt;/font&gt;" style="text;html=1;align=center;verticalAlign=middle;whiteSpace=wrap;rounded=1;strokeColor=#999900;strokeWidth=2;" vertex="1" parent="1">
          <mxGeometry x="1640" y="745" width="35" height="40" as="geometry" />
        </mxCell>
        <mxCell id="MfL6retrx8ds7Df4Rlp2-5" value="&lt;b&gt;&lt;font color=&quot;#009900&quot; style=&quot;font-size: 30px;&quot; face=&quot;Lucida Console&quot;&gt;y&lt;/font&gt;&lt;/b&gt;" style="text;html=1;align=center;verticalAlign=middle;whiteSpace=wrap;rounded=1;strokeColor=#009900;strokeWidth=2;" vertex="1" parent="1">
          <mxGeometry x="1620" y="650" width="35" height="40" as="geometry" />
        </mxCell>
        <mxCell id="MfL6retrx8ds7Df4Rlp2-6" value="&lt;font color=&quot;#990000&quot; face=&quot;Lucida Console&quot;&gt;&lt;span style=&quot;font-size: 30px;&quot;&gt;&lt;b style=&quot;&quot;&gt;z&lt;/b&gt;&lt;/span&gt;&lt;/font&gt;" style="text;html=1;align=center;verticalAlign=middle;whiteSpace=wrap;rounded=1;strokeColor=#990000;strokeWidth=2;" vertex="1" parent="1">
          <mxGeometry x="1330" y="550" width="35" height="40" as="geometry" />
        </mxCell>
        <mxCell id="MfL6retrx8ds7Df4Rlp2-7" value="" style="endArrow=classic;startArrow=classic;html=1;rounded=0;strokeWidth=4;strokeColor=#999900;entryX=0.995;entryY=0.423;entryDx=0;entryDy=0;entryPerimeter=0;" edge="1" parent="1" target="Z5x_Mi_MXpCfe0cvQZrA-4">
          <mxGeometry width="50" height="50" relative="1" as="geometry">
            <mxPoint x="1070" y="770" as="sourcePoint" />
            <mxPoint x="1680" y="800" as="targetPoint" />
          </mxGeometry>
        </mxCell>
        <mxCell id="MfL6retrx8ds7Df4Rlp2-8" value="" style="endArrow=classic;startArrow=classic;html=1;rounded=0;strokeWidth=4;strokeColor=#990000;exitX=0.404;exitY=0.998;exitDx=0;exitDy=0;exitPerimeter=0;" edge="1" parent="1" source="Z5x_Mi_MXpCfe0cvQZrA-4">
          <mxGeometry width="50" height="50" relative="1" as="geometry">
            <mxPoint x="1310" y="1140" as="sourcePoint" />
            <mxPoint x="1320" y="540" as="targetPoint" />
          </mxGeometry>
        </mxCell>
        <mxCell id="MfL6retrx8ds7Df4Rlp2-9" value="" style="endArrow=classic;startArrow=classic;html=1;rounded=0;strokeWidth=4;strokeColor=#009900;" edge="1" parent="1">
          <mxGeometry width="50" height="50" relative="1" as="geometry">
            <mxPoint x="1070" y="843" as="sourcePoint" />
            <mxPoint x="1690" y="693" as="targetPoint" />
          </mxGeometry>
        </mxCell>
        <mxCell id="BzAHBNoSj2ZcZIUzHrUv-1" value="" style="shape=image;verticalLabelPosition=bottom;labelBackgroundColor=default;verticalAlign=top;aspect=fixed;imageAspect=0;image=data:image/png,iVBORw0KGgoAAAANSUhEUgAAAfMAAAHzCAYAAAA0D/RLAAAAAXNSR0IArs4c6QAAAARnQU1BAACxjwv8YQUAAAAJcEhZcwAADsMAAA7DAcdvqGQAANwuSURBVHhe7P1ZtObXed934mAmiKmqgMJQmEFwAkmRjGVrsmS7E7vjoW3ZTmI7duI47amdpO1u3/RFe+Uia+WyV66677K8vDxElihz0GDRlEgCEkmQICWCAEnMMwqoESMxV+/Py/MtbhxCkiVLFk5h/9Z6au/97Gfc//d9nv//Pe85tXXixInTFhYWFhYWFnYvTt8eFxYWFhYWFnYpVjNfWFhYWFjY5VjNfGFhYWFhYZdjNfOFhYWFhYVdjtXMFxYWFhYWdjlWM19YWFhYWNjlWM18YWFhYWFhl2M184WFhYWFhV2O1cwXFhYWFhZ2OVYzX1hYWFhY2OVYzXxhYWFhYWGXYzXzhYWFhYWFXY7VzBcWFhYWFnY5VjNfWFhYWFjY5VjNfGFhYWFhYZdjNfOFhYWFhYVdjtXMFxYWFhYWdjlWM19YWFhYWNjlWM18YWFhYWFhl2M184WFhYWFhV2O1cwXFhYWFhZ2OVYzX1hYWFhY2OVYzXxhYWFhYWGXYzXzhYWFhYWFXY7VzBcWFhYWFnY5VjNfWFhYWFjY5VjNfGFhYWFhYZdjNfOFhYWFhYVdjtXMFxYWFhYWdjlWM19YWFhYWNjlWM18YWFhYWFhl2M184WFhYWFhV2O1cwXFhYWFhZ2OVYzX1hYWFhY2OVYzXxhYWFhYWGXYzXzhYWFhYWFXY7VzBcWFhYWFnY5VjNfWFhYWFjY5VjNfGFhYWFhYZdjNfOFhYWFhYVdjtXMFxYWFhYWdjlWM19YWFhYWNjlWM18YWFhYWFhl2M184WFhYWFhV2O1cwXFhYWFhZ2OVYzX1hYWFhY2OVYzXxhYWFhYWGXYzXzhYWFhYWFXY7VzBcWFhYWFnY5VjNfWFhYWFjY5VjNfGFhYWFhYZdjNfOFhYWFhYVdjtXMFxYWFhYWdjlWM19YWFhYWNjlWM18YWFhYWFhl2M184WFhYWFhV2O1cwXFhYWFhZ2OVYzX1hYWFhY2OVYzXxhYWFhYWGXYzXzhYWFhYWFXY7VzBcWFhYWFnY5VjNfWFhYWFjY5VjNfGFhYWFhYZdjNfOFhYWFhYVdjtXMFxYWFhYWdjlWM19YWFhYWNjlWM18YWFhYWFhl2M184WFhYWFhV2O1cwXFhYWFhZ2OVYzX1hYWFhY2OVYzXxhYWFhYWGXYzXzhYWFhYWFXY7VzBcWFhYWFnY5VjNfWFhYWFjY5dg6ceLE9nRhYeE/BK+//vrpW1tb3/eGejPewsLCwu8lVjNfWPgdYrxntl588cVzX3rppXNeeOGF855//vkLxvy873znO+8855xzXjrvvPOeueCCC9DTZ5999suaeQ19ni8sLCz8XmE184WF3wIatyful19++exjx47te+qpp654+OGHr7/33nvff/DgwWsOHTq0fzTxi0eDfsfpp59+1hlnnPHqaOjHRyN/4j3vec/tH/jAB75y3XXX3XfxxRcfP+uss14ZMq/X0FdjX1hY+L3CauYLC2+CV1999czx1H3+gw8+eNMDDzxw03333ff+b37zmx8dzfz655577pLxJH7+EDtbox84bTTx00az3uiOvdOG7mvjvfX8eEo/OJr6V3/kR37kV26++eY7r7rqqodHYz/miV1jn5v7RnlhYWHhd4HVzBcWJmjO42n7sjvvvPM/+drXvvaj3/jGN37kiSeeuGE08IvG3rmjaZ85GvCW5q2Jj6dwjf+01157bdvCd5v5s88+q6Gf9sorrwy111/es2fP8Ztuuum+9773vb/+4z/+4z8/GvuvX3jhhc/0tL6zqf9eNffh/yzkEwY+zjzzzFdH7CeDnf2sG4qFhd2L1cwXFgY8iR89evSS0cQ/8ulPf/q/+ta3vvVDx48fv3I0Zh+fnzFENMNNAx9P1Zsm7kl8NOoNTzMfTfO073znO6e9+OKLp43mv2nm+O985ztPG0/oJzTTofediy666J73v//9n/uhH/qhW6+55poHxvrpIfO8n7dr7jVczZWO+H4nTV7zlotPFX7jN37jj4z5pfjDxzN79+596rLLLnv8wIEDD+7bt+/w+eeff/KGgu3fiZ+FhYW3DlYzX3hbQxN/+umn93zpS1/6o5/97Gf/wh133PHjY33laKZnadI1a6R518g9mY+muxk9ib/88subZr79EfuGNPZ3vOMdp11wwQUndcgcO3bsxJEjR14e9p7ev3//k5dffvmTo8EevfjiizXbY5deeukTl1xyyROj2T419h4Z64PnnnvuixpsTVfsOxuuXJ566qnLb7nllv/0C1/4wp+67777PjpuSK4Y7/Gzxk3F1hB5bei/PGJ5Yfh5+Kabbvr6Bz/4wa/cfPPNt1955ZWPjDifdRORj+i71hcWFt7KWM184W0Jje/w4cP7R/P+6Gjkf3zQfz4a33WjeZ07yJfeNk/VmvBYbsbRUD1hb+ZARkP3FO5jdY0ceTI3wmjKp42n340OeXuHDh3aEJlh88TYe300/dcvvPDC18b61UEvjfWzo7keGk3+7g9/+MO/NJrubWP+xJB96c0arqfxu+666wd+4Rd+4a9+7nOf+8nnn3/+iiFzzohPE9+Af/CeH779TP+l4ePIDTfc8OujoX/xB3/wBz835veMeJ/z6QAfs5+N8sLCwlsSq5kvvK0wmtg5jz322DV+Jv6Zz3zmzz/44IMfHU/KV46mdd54UvZ74ptm5+fgRk/Tnsg18Ro5HtQcx03AaeNp/uRH7Jp0Onv27Nk0czr2yGnkRsimJ3g3C/S27Z8YMXDwytlnn/3oeHL+2o/92I/92z/8h//wr44n9kND/jsabo183Iz82Mc+9rG/881vfvOPjZuQPcPG6cUJvc/xRq4nfyQwYrXxyojh6QMHDtzzoz/6oz/3h/7QH/q8b+Br6r6oN3Te9CP/hYWFtw5WM194W2A00nM18dtuu+1PfP7zn/+/3HPPPR8ZT9SXjoZ4hgauwaEQT3PVZHu6xofeNxq6xow0aw0Sbzxlb57K0/eUP24aTjt8+PBpR48e3dws1MCNPr4n60nfCGTY9JH9ePLXcA+Np+fPj2b7azfeeONd+/fvPzj4F37961//6Cc+8Ym/+dRTT31g3Byc6wahRs6veDRvI/vzXjct9sZ4Yuw/M+x++0Mf+tDn3vve93712muvvXfcSDzxzne+89kR64sa+tzUV2NfWHhrYDXzhVMePk7/4he/+Me/8IUv/Lnf+I3f+InRVPeP5rX5hrcmNjdx0PBqrhqjZluD1BRrkFADf/755zdP5Pbp7d2797TxBH3ySfiZZ5457cknnzztyJEjG1kyF1100eYGgW3+auTITQM/PsLviX40bk/HL46bhEOXX375Q+Op/8nxlL/30UcffffwfdlouGe56XCDUMOuUYvNz/XN+WzfSKamPnyeGHK+7f6dCy644ODw8+DVV1/97ZtuuumOcQPxLV+eGzcqx0fML4w41xfnFhbeIljNfOGUhafxhx9++Maf/dmf/e9vv/32Pzea4YHR1M4dzWpL8wKNuoargRqtNTxN1bwGC5r13ND9rNx6buQaqkatSVvb89H6wYMHN83Ze86ej+A1cXNx8D8/mWcXaeae6jX2IeMJerh//bVh74zRvE8fjXyLHXFr5tmQj1jdcPTtenvlx2cNH9XYt3N8feT/+uD5Of7xkdeREfPB66+//p5Bd7773e++48CBA76Nv/m9+SG7+Th+pk0QCwsLv+9YzXzhlMNoQmf4S2233HLLn/rlX/7lv3Lvvff+8Gg077Tn6VRz3Nm0kXVNXVNt3xpqdH1z3dxTds0PNFSNXEOnD2Qee+yx00ZMJ5+MfQxPjkxP00EM2RSHuWZO381DMYJYRiPfUHn0lE+mRt3H9eTt1/A1d3KdB+B1c9KajW2ZE4M09xeGz0Pjif2r73//+79w7bXX3jnm3xy8Z8eNyXeG7OaJ3ciG+cbYwsLC7wtWM184pTCa1dn33HPP+z/xiU/8rdtuu+1PjyfXq0fTOms0sy2NTMOqQdewa2T4rYGMJ+YaN36NEeF74tUU2zPXqP06mjm5J5544rTHH398I4+n8Wr6yBpprvyzoXmCWICeJ3o/a+9j+pqrxizGmjNixwhk6GvOYuln+ulo8M6BPH/5LwZ63VjgdU5o+D4x5F8a+s+OJ/aHb7755tv8nP1973vf7VdcccXDI78Xxt7mW/GaebQxvLCw8HuK1cwXTgmM1/HWeHrdc+utt/6Jj3/8439rNPQfHY3j/NGITteoekLVwHpqNYJ5jVDzq6GjmlvQ1Pod8ppzsvQ0cc2cnuap+WrCfmZO1lO4Jq6ZWkMNUmzmczOFfLLhyVxj78mZr57si9tYXGAkT1fc1vlu3tN8+WrgzsxYPPZCtukOuU2THn5fGrEcu+SSS+77gR/4gV/+6Ec/+jkfyfsZ+5B7Zey/4VfqNgYWFhZ+T7Ca+cKux2hQ77j//vtv+uQnP/nXfuVXfuUvjwZ67WhMZ2qQmlBNTuPRSIN1TT0ZiGeEmpnmqRlqrObeO5ogP/SNmrnmqpH79rpGrvmS59tH691Q0AFN0to+e3MTpacR+1SBbyN7Gjsf3RxkE4pFfvQbxVMzB3bt8UmfjpzLV1z2a/DGYmMPL50d+WjWz+/bt+/h8aR+6x/5I3/kM+9+97u/7o/gjFhfGHKbpo7ID9lVhBYW/gNxxv/8P//P29OFhd2F0VDOeuKJJ676zGc+82d+6qd+6u999rOf/Yvj6dxfPNv8uhloNpqXRlPTmvdQjWxu5poW0rA0QE+1qG+t19zYpa+hZktjq/lq5pouW/m3ny/62UKaZM3SGopjRnvpzjbKlx+6ybGb7W4QrGHO3bz82WmO8oGs2UVsIjbH2m8JnD1uevY99NBD7/v2t7/9UV9EHDch542bj+Mjrs3vx28cfhebC9J1WVhY+J1jPZkv7DqMhnH2o48+eu3Xv/71HxoN/M9/61vf+sHRxC/TQAZtOoIm5KnSk2uw1kx7zfelsRp5jbTGaK0Rz41vfgIlZ48PT+Q9lbPl43XfPvfzcuDDvifz+SN2DYyffBZb8bNVAy6Wxnj0yLlZYNuNBUqfHKLjqd5NiTUfKB0x0kHlj+ZmjR+BPT5qxOI374ZlOzbCL4+zeer973//l374h3/45z/0oQ99qb9op7mT0eCjjbGFhYV/b6xmvrBroIkfPHjwwFe+8pUfv+WWW/7Svffe+4Pj6e/S8RredFevZY1PE6kZRr3OzTUbY41XE4S5aWmS/Zy6BqXpuQHQ9Mhojho2G2yN5nTa/v37NzGMJ9HTxg3HppnVyMnMTZZNYD+/bIqDjLg0RTaKydO+ORlIhwz5vlxXY+anHwsg+fi4nc8+UejmYj4zKJZ8G+UW2N5u1hvdwDZ+MGfHOPJ5Ze/evU+8973vveUnfuInPjXGr19yySVPjbifX019YeF3j9XMF3YFjh49esntt9/+R2+99dY/e8cdd/zx559/3n+GcvYo+LAt9T1oMEHDAs0I5qfRnc0LeQrX8Pw6mCdZjbHGpyGTJ6dJeso1J3PVVVdtmrnGp5n7vXKy6ZERqwYtBmQOGl1Nkz2w70keaqr2jL1v6eFZ8yVOfjR261lPvPIy8ku2fPgCc/rFQ8648yZihrOWV2dOt4be3E1AukNW8N/Zt2/fAzfccMNXP/rRj35h0JfH+vBo6s+OmJ4b8bzhd9YnvYWFhTfBauYLb1mM1+bWaDzn33333e//xV/8xf96NPM/NZrrVWPr3NFkNt9Sh54MjWhuIhqQp2J8TQyfrGZeM7PG10iRBu6J20flF1988ckG2TiaysYuWT8T93N0/Msvv3zTfPnxO+HsaIaaeU/ZwB8ee+UA4tU06bMvZvHN+fSRu8ZYc+xpmS3ED39iIiPeYtXMyZPrDMw7N3OxgZsasbLhZsCYL7EkX2zAF1uAL1boWrCZvWHr9TF/ZZzZscsuu+zRK6644tHrr7/+3ve9731f81/Djif4Q5deeumTI5fv+4M0bDYuLCysZr7wFsUo/Gfdc889773lllv+7K/+6q/+5JNPPnnzeK2ep7kgjUojqVngWWtkNRENQ2PSXOyDZmJPE9Pk2bGv+Wl4DzzwwOYPvMDccLOtWYGGxA4d/9GK95GP2TV0TdzPyjVlPsjyUVM359eaPbrlZU6/hk7XDQUd+Yihhm5unJs5u50P++Kz71MGNyhsk9PIk2O7HLvpsIcPdPixNooNnI34ZpQPn+UV0nfDIpdyneAvzr3k6fzCCy88Ohr6fR/60Ie+eN11193j/1+/8sorHxs+Xxj0ogavmUeUGxcW3o5YzXzhLYXxetwazXHvbbfd9mMf//jH/9vxVP5jo/DvGc3nTM1Go0agOfTk2lozAU0mPtCt0aMaWg1Wk/c0jTRAjcrvcGtGNTZ6vV9qotYapebkz7NqvJ7U/flWMtkQJ2K3OGua5Ni2Bs1ODGzaE6N4+aJn5Ju8Ua7szHLs4dnTfPuxgTUZTZytuak7h24GxAjsiAE5IzHVwMuBDJqRfvl1bpA9On0noTyyM/T96tqrI6cXxpP7UX+EZjT3e/bv3//YGO8dT/DfGvMnx/5zft4+YjnZ2BEbjQsLbwesZr7wlsB4HW6NJnjBnXfe+eFPf/rT/8Xtt9/+nx09evT60Ww2/yFKhd7rdRTpk81ZE9A40NyEoMZAt4ZlxK+h9ffRNd/77rtv00jxNV5fJttptzWwo3HXKNnUrDViTQpq4j5+95SuefLHTjnVIPHkZq4B42ugUKMNxQAaI2jmZLIjHnH55ECM7DkzfPvp4Imbrr3Zdmdn9BTNRjWjGwrorI1dI2AzHbzyrpmX+9zgO+PyGPOhfsJT+6uDXhoxP713796Do5k/cu211971gQ984DbN/rLLLjvoqX7EdPL/YhfDsHGywS8snKpYzXzhDxyjSZx/7733vv9Xf/VX//TnP//5v3z48OEbx+vyXI1FQVfkFXyFXpGv6SDNoLnGovgn67VtrNmxFTSvmizcf//9my+tabaaOB8aXbb5rREiftj3JK9RGjVefKNG15M/H3xpyNlnQ5w1Myg+8bqpYEdTN08PxMFW+aWPxy4Uqy/haebdXNTs6bWWW3mlH6zt0xFr1wLJEfgiA3NOnUHXja2uJ5k5frJG6+xlM9inm8yw99qYvzh8HLv00ksfete73vUb733ve7925ZVXPnjVVVc94C/PjfxeGtf6xRo6YqtxYeFUwWrmC39gGMX5jCNHjuz/zGc+85O33nrrX3z00Uc/Mor8xaOwn65wa4yKd42pp1NFvkZQkyBDHl9joGduzzzSGMHH3/6bUk3dN9L9rFzD60ts7GrA9tmYG4uGVAOqUfrvTT0Fiwno8NGvpLED7HSTwEa84sfT6PqY3Si+4jHSdQ78Q3nak6Mn6G4sxNTP38mgzk4edIxkjWiGuPHoOX/oLPGz0xxf3MnUmMXLBhk5GvHFaY7EBXMs+Mb5bMhZs+0MxnywTrw21n5n/Zk9e/Y8Nhr6vQcOHLh3PLk/eNNNN31jrB8e1+LpEcMr5HfSxvHCwi7GauYLfyAYTfUd/ujLL/3SL/2Nr33ta39yNK3LRqE9YxRn32DfNALQ+OYGZrSu+JuDgg/4jb22zdnr429NQcO+5JJLNh+z+8KbJ3O4+uqrT370XhOuIbFDt4bVkzPyBOzb4iDGnsiNPZXXxNgDduz3RC3ebIvVHGnOdMl50hWTeMqfvH2gR56eM7HHpzlZvluPJrYZraHzih+KuU8skk+XL2dh1FzZwW+v8ytmkK88xBuyC/N8Pn/2UHZAvGHInBgxnBgymvuL4+yfHdf54DXXXPOtD3zgA1+8+eabb/dNeR/Hj/N8eeSw+Th+NfWF3Y7VzBf+o2I0nTMOHz582ec+97m/MBr53xpN8ObRcM4ZhfRkRdYQNAoFXEOsscRDCnwqNY/kzDU3dnyDu2agCfR74Zqopn3FFVdsPl73v5ppMH5PfN++fZtGo3F1M4GAL3bZ0sA0Tg2pZs43PU/knsxr7OwV1zySzTZecbMtTjC6YZCfmJ3JnLun7xo+Ph6bfIttZ/zm81nN43zWbMmTXSM9uSBnSgefDzdJxWsv/fLMLpizJfffDHM8c66dvTmQiwDfPL9o6GvUr4xr8Ny4vo9++MMfvuUjH/nIFz74wQ9+dayfGDdIm/+yNSK/MbawsIuw/jb7wn80jEJ85re//e0Pf+ITn/jbn/70p//O8ePHbxoN4OzRDLZ8/K1IK9w9FSNrhd8TqeJvb24WirUCX+HWBNnyc2zkd8XxFHkFXsPRfGoIbJDxRTY2NUB+jMVDriaBds4Ru/ySp5ud4u2GIpjjiQmJiT47czO3B5q5uZsExD7b+Bo5XfF3E9IZ8YNHFsRaLMUO4kZ00kP84IvJGUHNHK/Yxeq86GafHr/ZY8tefp2fdSiGfKP2OxP+6LZnjR9Btu2RG/OtEdsZ46zeMW7uLr3nnntuvvPOO/+TRx999Max/8p4nT0zbPmZRTeUI4zvxrKwsFuwmvnCfxSMYn/O7bff/uP//J//8//XHXfc8edH89k/eGdU0DVrT7JI86kBaRyagIYAijqyrlGAwo3fU6LGo7h3E8Cem4MaocbTz5PJVbjJkvORcjHVIPmq+YF1DXhuZMUrJnY0FOvIvtjZtW4kDzVjvvDZnudytGZHruKnKwd62RY/GTy6IBZElg171uT4ReZ45Uq2+PimwzZenwo4Bzr080Gua4XYyRa49vTkhN+5JFPcbPBtXj505e36AR5dIxkkRnrOAtkbtDX2zhrXbM/DDz/8nvvuu+9Dhw4d2j/ifm5c6+PbMb7hyRxvYeGtjtXMF37fMRrOxbfccst//i/+xb/4f99///2b/2d8FOaTFVIDmJtPxddcgVbMFX2FW5PWPFAf7Zr3dIgUecVe8de8NVRN2cim4mxfoWdbM6lhikUcNRWEj8gjuunzYc+aLH26+RGLtRsEe9nSWKyBHNRU2cSrIZIHPH7k6jw0UvHLGZ88X4geO1BzDexkXwztk6fXPH9GufJr3ZO5tU8/nB3MvunM9mYf+S++8usc2ZNXvoFs+mJxrvJur/2dvjoXxJZ4xhlvjfVYbp05crh0vCZvHk39fWPvxfE6OTb2PeLbPxkrWlh4K2M184XfV2jkv/RLv/STP/MzP/OPDh48+OFRYDef9yrICqTCrXlqtv08tmYBZGrUdBR8RRoUakUfyNUUQFN0Q6BZaeI94SvqUONnu8ZhTyw9lVvzxXY+d67NQz41NPtsglHsxvTM+RefxiQG/lB5zE0RWaN03dx0NnjlRzY9ttIDfDJk8cSbTv5R+q6PuRgROB88N1FuKPiQszPLXjaLqTW9bBvLVf41aT5r6PRglrfXmbGfn/JEeOk0smUvWevB9zcMzjl+/Phljz322A1j+cqePXs2f0KWzqC+8b6xsbDwVsVq5gu/bxiFfs/HP/7xv/Gv/tW/+n88+eST7xvF88xRjP1f15vCiBRUjVYjUGRrCvYUbb+/7Qlc46oZ0qkwa4Y10LmI47NjXlNns6bakz4f8ehrVJ6ia0r08KP8Vtjp1pDaq3kY2TOSA3EiuZKhyzcyx8t2yD7bNSLybNZg+WY33+TmeIAdc3vZKc6ZdsaFNE43DuBs8DRy/rtmXUN+kXk2Q7mVa/7izbDufI1icONSI8cvP2NzvvNbLiDmfEbxxnjGs88+u++RRx65ccxf9bfiR/x+jc1+zXwzLiy8FbGa+cLvOUbx3BpP4Qd+9md/9r/91//6X//DI0eOXD8K4xmD/LzyZLFVGGuc+NY1AgVbs/Vt9Brh3JjImmfPnqKtOONX3DUaDdUIybCvMSCNgQ92NCQ3FzXxnugRuxEbkfWck5E8n9bsWPOdL8Cztk+nxsU3e+ZQzEZyQBZl24joWXczYy4GuuQ7YyPMIz4C/sg3Oi/NvHydm98MMJdn55UNvPKPyIqjNSSTHht45vg1bv7495owz4782J3zzz6ZUC6QH7oT/GbPGeMm72INfaxf2rt375PjtfmGPzizTd/VWFh4C2E184Xfc/hDMKOR/81f+IVf+LtHjx69ZhTS0xVABV+hVkgVVk/FCmrNR+NUaBVwv+alkQN5DR/V6FCNqkJu3jpfiJyxRqg5aAz89GSOyGiAmn8N3c/cs08/3zUmsDfzrcvJei7+5a0p+cSheMmJC7LXmkyNyDzfeOTAHM8eXmcljuQjMMo5/fRaz/LkxIycmbWG6tONzrgcjPEQ4KPmII98QXnhsWHNt7zyX2O3bj+/8kwvu+aBbMAvvmLrfIec36w4//HHH79q8F+uoY/5G/6f9dn2wsJbAauZL/yeYRTE05988skr/tk/+2d/79/8m3/z90bDunqwT/41NwUXKawKc0/Fc1PSIPxVNc3ck58CDca5YFeEK8rxYWdhr0GQz7cv0mkQfBvFQU4T18w1dXZryPSM+c4X/Z18Y/n45CE+e+yKhU8N3dkAGcQeX53ZbBfNuYGRbE0W+OaLbGs62c1HtsM8t9/oOtGhK26UrvOJiq05mc4H5pjxUHGQS9Yav2uC8Iz2+TCHeQ+f32zjIzDiQX46EzDib8ez9dxzz1306KOPXj9y3/K76COnTUMftGnmdBoXFt4KWM184T8YowAqfhfccccdH/mn//Sf/g8/93M/9zdHwb98NMXNx+rbBfJkMVY0e8LCM2ri/V64Zk5GY/WEyYbmZF6Topc9RRnYQRVmPjQWyAbwpZFqSppgXyITIx8abg2JD3Z2FPvNHOVz3oP2fEkMakDJ50scwBef+PlLJ7IXkUH0mtMhhxfxhdcZyVdsnVtxo9Aa2U8H8tP14MPYtYnECOnNNlH7YhNLMEdk6IrRmh/nk890yJUffvYQH8k1Og/XHeyTNxYPDFmL0zX08YT+7qeffnq8lN95/IILLnhmyM//r/pGftZdWPiDwmrmC79rjEK6NZ6eL7777rs/+PM///P/5U/91E/93dtuu+1PjWK5ZxTdTSP3lKuQVsQVUo1Tg7AGhVhBxLOnwGoI+Ip3H3mDAk/WWtOtkNY02O9nuxV2smxBjY8vpJkWCzlP0j2V08drDuzVNIofTxzI3B4ixy/CTxeVH7i5sNfaGeCJQ6xssa0RlWe+fMKAV5MSE9v9yIJNsjVhvsn2YwZzfLLFlC9Ehh/Id3Y6r87HiE+/+Mia27duD6zxo2TThfnsAln8culaOy+vl2zYZxM5G5Q+IiPm5BGwx9/Q9z/5nXfw4MHrDh8+fMXI99k9e/YcHr5fHbKbZr5Td2HhDwqrmS/8jjGK3enjKXrf7bff/qMf+9jH/t4nPvGJv/vVr371zw/eu0eRPHfQqG3ffXpVXGsYqGZqX7HVdMxrwoCvMFfI7RsV4Pba12zoGunXpPD4j/g2JqdZmte0QHMS7+wXz3z2b79Gp/FmgzwYyaYH+TfiscGWsxCLkQ16iFx2OrfinPPKTzLANj7wYZ8sfWONrZjm80XW+Qbz7NMrTmdTHl2P4sKzXx506LLh3IzZIx/EkXx+rIEta7aLxx4qfnzXpDjZzlaxkWk+6yKYZcaeX107dzT0qx966KGbhs+t8YR+bLxOTv4cfaO0jWJdWPiPjdXMF35HeO655y4cjfuHf/Znf/b/+jM/8zP/0z333PMnxtPLNaO4vWM85Zw+iuCWYooUbcVNYaxIVyTNFU9PRnNRrzH0tIc0CfpGDYIMfXoaM1+NfLIDZPCsFXN7Pvb2s/goG9BNAl81IwR4Yg/02MtfNMvwWb6RmCLAE2MNR45uKOglU16Alw8xhc7QnrOr0XZzQi95fjpvfGcsX0QGde7skiGbnrHzYd/YE276Yb4+kVzw3MTMuZfzfM1R8dsvVmAHX4ydSedQfvhRMLeHuvb5mvfMt337dcozx+tlvz8w48txY/3aaOpPj3jm/zd9M0zzhYX/aFjNfOHfC6OwbR0/fnzfpz71qb/6f/wf/8f/uP0/nR24+OKLzx4FfUtBrxhWnBW0Cq6i38flCnLFTtEkC4o0uRoDW3ODMW/NrmbQU601+Yo9P9nzUTDf1sVHh28fU2so5hp5eRhr7Mg+4qeGZg3FCng1FLLJkdEYEMwxkKVvDfJPZ254xULWnnyM2UDpi738rekBecgXmajrMlPNrnND+OSdUd/2t88Hvn0x+7a+8+06iU+siH+20jW3byz3zorNOX58cnzMZ8yOMbn5dQbmUfY62/Txk+En/raOv/F+vj8u8+1vf/u9TzzxxBWjwV/wXdOb63D60HGwfs2N45xv9hcWfj+xmvnCbwtFahSw60cT/7/5WP3BBx+8eRTY8y666KLTNQ1Q8NBclK0V1Boj0lwUZ1AoNQsjOU1HAa2gGu01t1ez0AwqxPzYR9kxWhdDOojPGgywQZZtsnxmzzz75LIRT0zFh4fsazLiw2eTXDcY1pCseJK3Ty4bmqHzzI54rPm0RuykL8Zs8NmZkg/l0blniw80y7IJfACdQM5NUn7oskunT0DyQ5+P4ono07MvLrnJhZ45Ph2vm/Jgr+tHJ9hjq3gQ3pxPMsZyZo+deDPNOjDkNPSzjh075j9s+YBPqW677baf8COnb37zmx88ePDglS+88ML54wzOGXH0R2fkIYgCGazvxbSw8HuB1cwXfluMJ5Cr/vk//+f/95//+Z//G4cPHz4witwZ44l8y59grQgbQRGusSiSntw0l7mAJlfhxrc/k4JMz545ojsXfSNeexXIRv57QkXJFY85/+Raz3754sd+9vg02kf0YJ7bLz72gO18zCNZjU9jcia+MOiThBoiPjmNiQ55cmwjMXZzQse6G6camsZebGyIlS6wRQfNOcTjzwj2reOxwbaGrNmy5a/CITHNNp2DWDrf8g/ksu/s2DLng2y6bLpm8uUDL/vzNSbfdbQGcsUzx9VZ4rGP+AZ2ki+e7fw9fZ894rjw6NGjV/rW+9133/2Rr3zlK3/s137t1/6zL3/5yz/8yCOPXHP8+PGLh84wcfrrw9fmqX1jeHtkd2Hh9wKrmS/8lhhPhheMp/G/ORr5fzeK1uWjIJ2hifs/tXv6UzSbV4zNFfmKsKJVQQRFkRxSPCusbJkrwIgOPh5dRb4GlA4fyeKbzzZg1qsoR2wgOWhKfSRfrPQ0yp6g2YAKcXL4qNyMUO5ial4s4AnWt+rZEYOYNXJP5Xjyw6efDeCjJi4ua/ty6CamvDoHayi2+SzJI7LlwZf5nCO+NerGgb6Y/XqhXLLHVudrjp8dczGzw4/9cmsN/BUDeddB3Plgu3Hm5bMYskkmgvyTgc6ST2cP5Vv+ITvD7tYYzxoy541rsvfJJ5+89tvf/vZ/Mp7Yf2Q8sX/4scceu2ZchxfHzdqzQ+67F367oUN5Lyz8brGa+cJvCo3805/+9F/4qZ/6qf/Jn2QdBecMhXvv3r2bAq6wzUVIAVTINRj8irziOhdbBbXCqBEBniZU48muwmpOVgFXSNlQZCu02SYD5vaMnnLts5FvRBaZZ4ucGBB5vvDkpbHKTQzZguwULx3y8jLS58PIh7nc2ZEb0gTJovj9j3DFVnwRn+mwZ+RbHOUI5YdPDujWsMrFmJ90u0adeyhn6HzJuCmRiz1nz449c9QZAZ+ILH7Ez848xOks+CgW+14rYmR7vradkbl82pt9BrbwyJO152yM6ZCx7vz4nteQ7e28/a9svgx6zjiPiw8ePHiDp3Yfw4/4T9+/f//B4c8XHIapk3+AZkMLC79brGa+8KYYBe1sHxf+q3/1r/6fhw4d+uAoNGcoVBdffPGm2Slkio+CZ1TwFNyeMDVyHxnTUST7KFYRRIpysp602FBQjfYrukgxn5spm2yRh2Iwou2Cuin2+IFNYJNf60by4iyGyP7cXIpbTPTkSQ+R1dCQufyLMxl22NMw5E1Wbs5OXHj+aI4520g+bKD5XMzx+ELm/PEzjwjKw9jTLSo+9oBtMkAe5G4ubr6ADF3y8vAHf+y71uIGNullJ1jbYyPfYrHmK3/l53zcJLJPptxr6NBrja59I1nxFQM+lGMyfLeP7OP1WmOXnHNz7QM5cfSaY8PcCGPu43h/gObc8T660n+1OuReOnDgwINjdMhD9Ht/hCa9hYXfKVYzX3hTPPTQQ+/61//6X/+jUXx+bBRLj8Bbc1FDilZFU0FVaBU3hZyswmS0PzeLChZZT6D07NUYySeroLKN6JHpY3AyRsRPT/WQTnYqttb8IlCYyVmzn1y5zSP+bJd8P0oATbi/XiceRK9iD+Xu/PjWoLpRqcECm/383LzcEBtIDMVeTKg8jXT5j4fIa45dr2ylU87tiTWfeAFfvIi9bki6huTzG8SZLXuQLF37M/DZLwYgF7GN3znnq1zaZ5cN1Bzm658sWIdsdr2MvS5dF/l2zuLo/Iodtm2cPs7ogqeeeuqyvXv3Pj7o8OCfiIb8augLv2usZr7wfRgN9uKf/umf/vtf/vKX/6tRWC4YjcbHhpsvsyk0Nd+Klz3FUZGzrtniKXJ0KnB41goheQ0MND72uxGgB2RR/uYbBYUSn38E2Z0bQLrFolCTM6+oV8zJKdBGNivO1vahAg1yZUuRd2PCnibcr2yxJV76gR06ztHH0n08za6Y6Gni7LBffohuRA7ooDneucGIgXw5ilHjFYP1rFdzwgOy5IC+mOOZI9dQ/vjFKR62+S++bBRHMbVvDvMe4st+tuOj+OVLL3vmdLPRKE5nbd613Gk79OkRHXk6N+iMjXLs9cEG30AP8BuHndP918Djmr/jyiuvfGhc52eHvGZ+8u++F//Cwu8Eq5kvvAGjOG8+Xv/4xz/+D0dTPDBoS8HWkDSXCnkNV/GH+BU0BRGvYl6xI2NPw2VXMcXXpGvmNR+yimU2K9hzg2ifLH/sGu3RMSdjTm6OtcLdnEzNjI90onTJAh4ZBV8zBj+G8J0CdorPWZHNL77GoIm7AaCvSbDVJw/dtNArV2iOikk85og/RB91ZpB/Z47KLxkxd/7sdzb00nfNjPSzJ3bnzt7c1FoXL3vpROx0nkY6XVOULsr2zAdjesi62LvJyC++WKN8Zo8M2eyai9H1QuT5cG2cFfniBfuzD7ahXLfjOP348eOXPv/88+/Yv3//Y6OhPzf0Xx+ymz9AM2jT1DeKCwv/nljNfOEkRhHaevDBB9/9sY997B88+uijf2QUzzM1KUXUk6LCpKCBYmatCShaihQ5ha0Cba0xkKtJVPTIawIoWTaN5N+ssOIjPmo+xYFmeTJ4YuHTnB/rbiLITgV2I8M/28VRoeYfyM4x0dOU2dSEfdOfLl/26WaLr/zT8StcfdGNrDNyw9RZzb7nMdvF0F48vpxLZ28Eekj8rlm6ZORcgxIvyA2lFw/yZS1+Y3a6Pgiv2NggN599trNPXkxzno2oPSRO9vABL31854xqrFH+s0veSKd982zj9TotN2M+kT3y5YXoWccXi/mQ9Sdizzl06NAVo6Gf539lG6+d54fNV4etk//VKvv8Lyz8+2A184WTGIXlwk996lP/zRe/+MW/NorIhYqOgtSTogKlmSteCqlRUVOooGatYBnpAFmNQhGs6ClsbNXI7JExZ7OGMhcz86iiivgCcaC5GNubG0pFln9z/o1QM+LbaF1TBfbmAi0XOdCnoxGTtebLudEvRjr51MyRmyV2yPSxOh322MBnszwCHZQcAiPZOQfzbNivOckDr7Oc5To/cuSBP/EbgX4/QybLRnbk4HrCHB998kZEHpIRrxj4YBOvefGDOdliCfgoP+nKA9VQga3ZbjH1Ouqc6LAjVtenvOjmn3xnlR166cIc/+BtvfDCC+8YDf26ceN87eC/4mfo49xeHnI19I18OgsLvxVWM1/YYBSfM2+99dY/OZr5PxpF6epRUE5XkBSsmrLCpLBUrBU2IIOvuCpYM7GBrxAayeIpehqBNX7N3rxGRL/Cjqzt482Nx17FF4F47IuRLfJ08cnzS0dO+cxucbQGOuKuuCO+jOQ0YkQXOTPknNjKJx0fq2vkxs5H/snzGaUvT7HvJL6LPzmjGOhaG8kWQ03Hml7nk4/OBrlZMeaPnnVn4ct75nQ7L2SO6IgHyGUXgbzzm430xAHGZBBktxHIzde2s7VG1s2TY5eMEbJvr+trLqZutopRnvZgzottyFZ58ZPe9t7WiOmcJ5988qr77rvv/eM1ccHAcT9HH7Ia+kkbY3zjXcvCwg6sZr6wwSOPPHLdv/gX/+IfP/bYYz88CtZZCpJCBoqQwoYq/EZ/OEZBDxVHBUsRsmeNakpkKrTsWePXeCAbwI446ODX8KJ8sYPM8RVeP4MvViPiS27FQJ6Nmp95ZI9shV8+kdiN7LCryPPpY/Y9e/Zs1nzNOdOpkfdX0vgptvlsi0cMO4HHLt3W2XBG9tLHIycH/uUsbiO+8yRbvp1jMQc22cbv2rkumjnQZaOcEbBtrzMvBjykmbdPp3j5wrMHRjyU7sxD7IsvzPrm6YI4kPjms4vEiMQkHmeJrPOdTmeXv86zXMon2Xl/28cZY7zo4MGD7zpy5Mi+8bo9Ol5DR4b8Jplhs6f01dAXflOsZr6w+fb6Jz/5yb/xa7/2a39l1JULFSyFWqFRgBQdxQRfk9Kw+qhRQVTEKlyK6VzQjDVVe/TMNZS+nJQsvVBRJss+FANZBMWn0LJTU9WkyLJPfya8+ECODWP2m9ds5CleVKGXA5me2MRAvtgr/nTJOlON/OjRo5umzj95ur6TgMQtFj7FiLdd8Df2OoNuaqzLHbGX386W35oJ/+KxL6bk+STPl/jJuNkAcz8OELM50sStkfMSTzcGxWHs9YBALPPTfte3OR0QR/FD142c2BFYpy8/IBcBWXtdt9mG+OSP2HEmxnSg80mvNZDJVzEYUfn0empkP+KfzJDfGufyjvGUfs2xY8f279u377GLL7746LatfnVtM984XljYgdXM3+YYReiM22677cc/9rGP/Q/jafHG0VhG3fjeH/Awr6Ca10QUJVDYFSWFKx45hadiWkEzkqPji1+KOll6M1UEjWyDkU37bEUaqXjM7bMXwWzPHJKjUwPCy741Ylexrblp5DXlml4xaLoa2NzQNOnkjfRrgs6m2Oac+ERsIT7kPudFzl7nU1728LpG5l0DcnIQSzzyPl0B8YmtRputJ554YnMDUO7yLidUzDXvzg/fnB3nCnJhXxxABsrBGiWP3zmbQ/ZmwtvpZ6ZApriQPaP48xvxh+g4h2IjK7980g/xoLjyZ7QuRjBv397wt/l778ePH798nO3W1Vdffc/w5Wfo8++i01sNfeH7sJr52xxHjhzZ/zM/8zN/96677vrjo1CNmnzuptoo1IpdhVmxMWoUCvd2UTlZ8BQkZE1PQ1C0K1iRvZ7yyPZEW4EM2c9H83yxZdRI8c2TQUCPXfYVZLp4YJ5fupAu2xVwOdTANDRxG/HlSF8MzqSzya7ROdLXxBB9I9jvXPjLp9iKpXMp5+w20plzT9a860DPXA7W5uScvXjFJx98czF2jbpO+W/s/PgvZ3NxlcssywYfYjCC/WjOzVr8IJ6uWTlZl4dxvqadgRHxF9pjP+A1pgdsmhcbEptczWcbkP7sO7n0yytZayOUx5DT0M8aN9YX7tmz59HxhP7UkJt/be3kl+MWFmasZv42xiggZ3z2s5/9s5/85Cf//iiM+0dx31JQFVBNSMGwRqD4aACtQYFTVEExqnlFZBWyoLhqFORqABV+hY2NuWDjQwUQ2GM3XbJhns865vaiimFzfoqjWMRR0xavJuwp1RMsPj3F3Zlo5MiPFIz07WdD3jVJtuzzZ5RPjQIvPefHllzxyns+z+K1Tx7klF8gzyf/ckHk2SbbUzc+HZ+a9PvvdMWYH6ATuobkjJ1hevxAtvkRSzaySS5ZsRenefnIzwj5I8MPgmyAOR0ybOQTv3m2yeDPMYst23zNue4EHfKzbvp4dOJBdstTnOU3aGs083eOszrz8ssv94dlnhv6r6Gh0++hn/S1sACrmb9NMYrY1iOPPHLDv/yX//IfP/roox8Zhf0MTUmx6aNQxcZTpwJmriBpOGQUwYpVBZqOsQILGkaFDOxrhmQ0poooqsCGeMZ8sUVPHMUC5NJXEFtXqLeL5GYfKvJ47LKDihWvYklOjs5F7JofPXI+pnZG8vRRu7W4+OaDDtLEUbnnk7/OVbPoJqU4yp0/Nu2bs2kUV+fErhE6f+cNYuZbTHjF75r5Mp6f49tHbNLvUw/x8EuefUTfHj5Z8ZIr9s6PbI1qbuZiZa9r0PWwhzo3Osb0gJ7zcub5nv1lE9kDPD7wAjsIjx4b2WmvfFDXBh/opYPwO5/ZRkQmzHEU847z8Zfi9o4bKg398ZHrCyOGV4ed1watPyyz8H1YzfxtilE0zhtP5X/hlltu+SujcFysMGomULPqaVEhU5zerGApPjUAOgomOUWPPt1sVLAUZ3My2USQbchn9hRTVCFn317FMN0aw0zx2kdigYpy/ozNyZNTYCu2CMRRIzcXjxsiuZJ1jnKtkRo7nxoDeSMdBPl3JnzhV/zJiold8PScPJ/sAxk64sYjXw7OAezT7yl83uvad+ZiEA8/IId45kbrZDs7PhDbSD5G6JrPoDNfL6O46RU/meTYME8X+C4+8YAY7De2X6yoM3fGXRNn0D4ee+ZsJD/rZz8fyYd0UfHTK1/ExuBtjfGc0dAvHzeB79yzZ8+hCy+88OkRwyvDRh+3b2w2Lry9sZr52xCjSJx+5513fvRnf/Zn/8Hjjz9+8yg4ZyjeSJFROBUUTUqhQNYKjrEGoTBpUj56tiaHpwiyVSGzTk9DM5K1T66CCPyDteJZXDPRY5ON4q1JNEf89FRnz9ocz7p88ldhzy6QmW2mT66bCg1ZXPTFVkzpytlTec2885Ffn4agoKCLFYmPXPE3FwNbRv7wNGT+agrWjWTN7bNJhz2N3B6Iq1g6i0CeHhvpG+XR9ZP7fG1C51BObJDJh7FrK7/4iB+2+DJ2TuViZN8+JBPRz0Y2kwVrcsXLdzdmeMbkxUbWmk3gvzNBrbM7yxcDWGe3HPDIi2H7HAR13qFDh649fPjwZePG8fjevXsPDf6rw9bm77kb2Sj+hbcvVjN/G2IU9/N/7ud+7q/feuutPzkKwjtH4dj8rFwRUVAUSdBoKvSaRUXHvEKkUdRQKsSoIk/Omk4NLV43C4ENsKegRhX5nY2CHbHyj8xnqokYm3czYS0fMbLNB+JDwRULIleO5vkC8s7Ix+ue0MVWfOXCX8285lrBBr75s8anKy9yzoxPfDb4tV8TJuNmqriyzx5e58A3nRq+vXS7lsVsFJNzdxbm/CN2ERkw77zsk00e2IU5FsSPfOfcu85o9mPPnKy95NqXR9cq8Iv4lZ89MXXm5Z8eW4Efr0sj+/bId0blnr7rYm7fGNHLH7n0O8vgPLrBKc/OfVvfn349+9ixY1ccOXLkUv/b2r59+/xva30RbvMt943gdmwLb0+sZv42hP9T+ZOf/OT/OO74bxiF6gyFQ5GEim3FBF9BrJlUeMjVnBUnBVYRqmhGc1GrqdHH48O+NarQ7SxqxYIfKsT0Kt7WFXC+NCs8cVtXOBF5NruhMK9J5I8uG/QitumLTSN3PkbNvIZeYReLpsu/Ty+MbNJFZOl3Zp0HdCZ8asD0yMx77JUvwmsuBnbFb06uM2hkU+58IjGJB5nHY5c+ZAvIQdeePTqdY3E6LzHRswaxkZOz0VosM7GXLGLTGTSSaa/cxWefrnU5GmffEfl5n13Xkw3xjia6ec0iZ2n0HYN+Xc9/edvry3Uy5oddMQBfrXst8U0WmSfnTIpPHGNvqG6dNV5Llw7/Z19zzTX3jNftd8be5mfnxrG/fob+Nsdq5m8zjGLzjk996lN/82tf+9pPjuU7RsHaPJUrIIpNBUZxM1fAFKsKZUWyAg2KjiI4F2c254ZAT7Hr6ZEcss/vrMce2AO6kQLLt2JorEEUk2KKxGzdWOxGEC+fgMdvTQwB3Wzz18ieGMm5GTD2s3Nz+dCt+M/fgOeTn24E5rNiUyzkEBjLq2bBNhKLMXlr54HYETu/ybUPfHXd+C73rkvXg52uR+dnbd8cz1rOsPOaiYFfcYuRXPpG1LUwIrxsJMNu+71mjMh+dhGZWd/eHJ95/oI4y8coXmfX69++Pbr2W+/kRdaddTL5zsesj8TaubgW4rPehif0sx577LHLhu5rl1122WPjmr04ZH3Dff0O+sJq5m8njMKxNZ7K3/tv/s2/+UfjieOm8cbf/EcqCgZSbOZCZK6R4CswyLxihCpACn+NSRGqOZkb2VIUNSR6+aygsUtWQSKbD2tzPDHVoCONAs/Idk9Q8fuZMDviMFYkxVtu4rXGt88fG2KYfSHxkNO8a8oz2SffU5wYxITPR3J0iwOJA+YmIAfXqBjmWOx1nch0RjNPDBoTWTz58ilfJI5iwi9/o3jEYA3sWtNjx9kYO9vmZOyFbkTok2MPkZ1jmf1mC4G1fWP72bCOV/xgD2+ep0/GKE5xdZ5GsboBK+ZyYZt+toxyBTLm83rWJTvHk2yxFHf5tzZ33WDY2vyVuIMHD14+7Lzsf1sb101D33whDg0fm6a+8PbDauZvI4yiet5nPvOZn/ziF7/4l0ZhOK9io2BUZKwVj4rQ3HgU/blQ0PNEiq8YGxWgbFXA2FIoNSE+7StWFazkKnDmxVQsGpNCqzGwY82mgluzQBXl5BE/chCjuVEjLreaGX98FTMbNU/NuIZo33kgPy+f8y+P4tDIawzsF0f+e5oXl5zzHdhgL2RfHMUCyeDVnPiUgzU++2LsBqS8uw72u37ZNRYTyk+85OWA2ODLHhlzsThDuZDlz5iedWdIv336Yi/f2Te/5Fojuullf56jZLJlFJcYxcyPNb/AR+diTD9iH4qBfGcC7HduyaZnTD77ePlpLbbOdJD/be38w4cPXz7ee8c19HFu8zfcNx+352vh7YPVzN8mGMVk61vf+taHfvqnf/ofHDp06H3jzb75X9G86RUNo4IzF2L8mo1iA+1XdHq6jCpK5hUjfhTz7FbszNk2Bny6RlSD1rCRuWI7N6nW5sDeduHbzOXgpmNuYOLme26qZNkoR3b5j+YCTz6ij+RLr3jlrJnTZcs+/8WQfmeBzEE+qBwQfVTxR/E7R9eQXjGzh2ckI28+iwPZ67qRmc8fb44j+86o/WKiB2TnMyTvTDo/8vzSyR8qJ8QXdD2KgX9IlxwqXhTMy6U4zdlA7BqLzTx74nNW5WaE/BefPWDXvDysk4HOJCSbP/LFOc+Lr/zR4J8+Xl8XP/XUUweGnRcuueSSQ+P1tHlCH7b6Gfob/C+c+ljN/G2C0Vje8Yu/+Iv/5Xgq/y9GEXnnKAKbd3pvekVCwajgKjYVXFQxq+hZ2694GZECq1G1Bwo64oOsQgUVajYrVIh98pqhj4lr4MYKYoWKPSgm/vGyIwZFueYtruIrv3hs8lNMNcQaM35518SzU+Hnl+ys27kWH3k3F+ZInMXftShnKFfnJt702JGfsXUx8Ifo0kunmM2Lh83OwchmPLryZtNcnF0v+niNfBUrHXmXu7FrV6z8kJ/jmG11LuViHvKbT/N0531+zCM2Oh8x9boyt0dHXM7JNe488EO28mtubI7AfnKQ7zneGfjtpePMek2yxca2j9OfffbZPePG/IoR3wvjCf3gOMPN/4U+aP4Z+sbOwqmP1czfJjh48OA1n/jEJ/6+p/Lxpj9zvNlPFg8FQrGYi5riqpgpLBU0OhWhij3EJ0PPPPvGuRjjVdAA35r/eS4WjdAaAbuKc82IP/N8FxM/bLEjhxovHdTTKdmam7mimU/zfv6uOddYyWaTLevZBvAtfnqdZxDr3CgCfucmbuja7Dz35kjeM3XuQS7JFaOx2O0Zi2e+bmTMyVhnD6yTtZ9Pc3rQNafT9SVnPxk26OQj351ZukZ7+K5FNwfWxuzIIRtyxoP8N9I3ut54QI8+PfE1dz5G++xlt5gbo2w1Tx5v9oXshVlHvsUpX/yujxENm1sj/ouPHj166YUXXvjUvn37nhz8V4fMG35+jhZOfXz3lbNwSmMUvK277rrrDz388MMfGcXjrN7cCkPzCkcNHewpQgoOUvArbHMBmwuG4ormItQe1Azw2NHYjIoTzPuIvj3FVRP2ROvvn0fZqKGSZwOJwz4q1tZRP/MmL/dI/MjTtXVFWN7kxdPITsgHvvNKHslnjo3NGn666ZPv+wjsiBOZ54+NdBD7/KH8bxf9DXWeEM+aj84PvBbAPn127KdPLlm8+OKB4qdvtM5/ozPoTANeKJ8w++i6+BFGX/DrDMmJefZJR05ej/P15Z9PcsU8j/xlE5ErLhTw7M1E3zVor3is5yaNL97ZnpjsI7Fa05tj29bbGjbPevLJJ9/32c9+9i/ee++97xlP6xeMszlv6J0z8jtj5P49wwunNNaT+dsA4w1+8cc//vG/fc899/zIKABnKjIKi8IA5hVXc4WFjGap0CDFxKjAKJ6KCXmFkh3Fngw7ipX9/FS42NWQgW62K47k2TJWsGpgNZR5b44LgSLvG+Tsib8mlb55PsoVxEfXKDZP5D2ZQ7Hlly25zPGyF5yDs2G/s00XnyxddqzJkC2meQ5k5Irw6cmJ786BjfbB2tnj8U0HmdMzFwN9flw3cQIdvD6pAHY7Z/EE52yv/MCoEZUbqqHywT7fxZrfzjFZdqzt14TpIjLs8iHWrgO0R4cuvT5hsc4ePbb4mc+kc2WPTH5COsGaHAIj+Vmn80P4YkmnuMvRnpGO69xZ0eUr/cHbGuOZx44du3jE/MLll1/+8JB9acj1n7L08/PvBbJwSmI187cBHnnkkes/9alP/e3R5K4bb/StCqax4gKKBChc9hU2RS2+sYJfQVIo8BEdREfxQfjs0UnWGiqUxVBceMVXIUOaZ8XWaK8csqsYVqTn/Oa5+FC+6CmcGlf65qhiXDyNkViMnZP9kG7nhGZ7xT3vx2/EI9MIs5zY43eu7HWd0iPbWVrTR2SzTx/Fax/hz7HstDufAb/kxZBd8xosmc7ffPZBF/JjjdoHfMBjw7p9DU7TtgbXkl+jPWN+0i92Y2eOb46AbLFE5TTPixHKwQjFRH6OId5sI5nOCazJz7qN4/V79sjtzMsuu+yhiy+++OiI+9VB/lOWzX/MIo7ObeHUxGrmpzjGm/ysr3zlK3/8C1/4wl8eb/aLFPO5kDZXtBQzb3hFz9iXtEDBIKd4ILIVlwqFffwoeSCbz/TYNpIVV4WTTDwyqKZJplgbK5YKYR9b4/E354dnzCY+KPD0jHQ9ofeUToYP5Aaim4mZ7BnJRp1HcVibG0NnkJyzkkMwn3XLebbrLO1nl8252JMDssVK1jrbiF3o2uy0b4R0O8/sFh84NzYQeaNcnK1xJz+fYp79sNm1RIEsJDPb6hqag+uYb3HN/unKo+tnzN7sU0yo64PMi9eYz2T4QNmbY0XtkwXzOffOuOsF+YNiQnSHjN9BP3/oPHPgwIEHRj4vD92TDX343vzK2kZ54ZTEauanOJ5//vkLP/vZz/7kHXfc8cfHG/rsNytajfEroJq5sQJiPyg2ChHdMNuio3gak2lPUQL2FKIaA5A31+TsG+3zR38ueuTwK6D8KeYV09lONmab7NHVyGve5jV2Nsiy49x8MjB/tF7cxtbZxTc2L16xs1thzoY5//jlWaG3V+zZz27y+SBLz4jYodseObEiejCP7HXdUHtg3rlmJz49sdl3dnjpiqczLUe2jeXIHvmuc/sgb5S9cmptRPj02OQnsmYre/PrYB7Fn13xsCfu7BU3/uwb8j2T95F9evbLMVkormwDuTnnWQc1Fxfaltka53vmeB2fddVVV909ns6PD/1XBp38b1OHyPr981MYq5mf4njyySev+Hf/7t/9V0888cTNo1id4clSQ6pwIXOkSSkkihBYKxygCLSvkCRXcbGfPXN7CqA5WWSOFCBIHtjIToV1jgn4gmKumeDzl0+FMZAhy0b+WvMF85M4qoADOfKdG3soe2IWb37YLKfmxnIgXxFGYq6YW5PlKx8zsgvZ7Fp0ftbZJgNsQTcobtJQPLL0imNuXNkoDzw2rOVdTPKQP7AHxdKZ5ou+mFF5GJsjIMtHfuiJC8jg49EzzvN8zrmwIcZiNzfSKddioSMnNoz2k6GfnLkxXSjObBQzGTbaz665XK2TLx82jZCukTwyz+/Q23ruuefOHY384JVXXvnoeO+8NK79yYY+5DYNfSO8cMphNfNTGOONv/Xtb3/7Q7/yK7/yV0dRunK8sbcq5JpkxQwpCNaoggEVKjKaWQVJEasIVXSSTSY5Ns3nQkQ3u/Gtk0fmQFaRo0fGXg0vf9nIvpFeMsWXbWs6iG1FmzzKDnk/DybPTj7FheyDOf58Bub4jYCfz2I0n0G2a0OeXSBXXOkkM++Jf6dt9shpbOLpZs5+OTuDOb7iNi8P+2C0Rtlmw5o8P/z3HQRrxAe45v38Xn7lUfz5YYusfbbLKf/GzlbOiD4ZY3FE2UL0yo9er6/Ogq7Y+SCTXzrGnQRi4qOY6OBF+Eb8cikGFIo3/dZii1++fE95+Otw5zz77LPnX3bZZY/u2bPn6Djjl0ZMr4ycNfT1dH4KYzXzUxjjzX/mV7/61R/78pe//JPjjXzBKJxbCrlCOheRCgZUjKwViwqfUTOrGFnD3ARCdrNpXoGsCOFViCoubMfLD1mNtmaLL8biTJ+vKN/k7SF6ZNO1Lj4+yEIyxaDhpMtOtvOTDrCBh+ig2X/zbAA+ZM+5kgFrZ55+MUG28OjKobjE0Tp5mONE9uVXs6WTb3pzLPmfzz4+Yo+sMVuumbGGnv2a+HyjxB5drxNxkWPXGDmPfM5oj14wx4tPhg+++Szu9o2dS4QvtuKgH8WjB+Z49sxbJ9d6p3yvLzF1Lub5KQ7k/Fo3J5/9bZ6n84tHQ7/owgsvPHrJJZc8Nexufn4+7G3+oEzyC6cWVjM/hTGK6Dm33HLLn7333nv/2Hgzn6M4VDAUAqTIKg4VCfuKtcKgsFb48BTfih8+0I+HmjdWdMhV0ME+m0bgYy4w6dMVB8ITO0pXTrDTf76SKYfIGuwj4J9tZ0AHFQNb5p1LebGVbjzzfJqXF30oRmO50YX8Ot8ovthaAxt4xZT94gW+i0msZPo783g+pfEE7ccMbECx2Z/9iaHXhz1y/MiTD7Cem3gy5sXBJjvG4jK3P+cR2N95lkCOTmdGprj5tFfOMPtN3mhtDvnCLy4240XJzyi+YqQnDv47h/gIOkt+3LhZz76cG8iFfrrWxuSTgWHr9NHQLxnX9cL9+/c/tHfv3iODd/Jn50N+47w4F04NrGZ+CsNfhvq3//bf/reHDx++eRQKf0BiUwAUCcWlP7hREagoeJPjKaxkFQxUUQoKkGaiMdBVeNgzp8uGPToVOToIyNIXU3bbo4vsk0Nz8TEXk+LMH0pnLnaofTryaQ75tmarTx/aI59dsZERE8yF2n4NhK3ssiVOduynYx80UfLpGMnykR4bfGfTyI8z7uyBbudXLOkDXcBjQ9NtTH6WYU/jpz/HwweeObju7AA7XleoGGvQ5LPjnJF1uYOx15HR3uyLzVkWOhNkLgY6PoUiD0a2es3MviH9bObXmhwdMeChYuZrlm+PLDJH4hID6qwRG91YickNMxvlBEayQNd5kukTtmzRYWfAP2c+88wz+8fr61zfbj///POfHbI18z5u/66DhVMCq5mfwnjwwQdv+oVf+IW/NYrilaMYbc3FR0FQMDUT/AqHQo0qGoqDglGRiipUoBkoJIoSPXzFJV/W6bOtOFag5j0249NF4mPb3tyoyCvMdKEcKppkjBoC0I/o5DMdKDZFVfFWLNnIXj7i0ZufQs3xywlqgGRrbBEd9pKFzgGPjpjwdhLQ5TtZhOc6zI0QmqNy2Klvnk9kTk8OzsWIT7445JFv+r2m+O8s2s+//GqQRjbxgBwUYzqoM0fm/M32zckZAY8dtvORLfN8kidnRMllr5xn5BNBugjaY7c1ZH8e4/NBPh3AoyvXzhqv16lrQjdfRusR8xi2zhoNfd+QfaY/JjN87mzo254WdjtWMz9FMd7YW1/84hf/2Oc+97n/crx53+nNX0FACr7m4wkKXyHYLgInC4iCCb3h8ZEi1NweW1AR4qs5exG9ijfwCxUhcfUULraaUkWdr4oWW+zkx15x4rFNj410i9ucTHas8Yuxffri6MysUecF83ki8QEb5mQb5UImeSOe/XJUnBXpYilma2PEPtC3hnyzy1+5zDGRLTdyRnJ4xUemaySeqGtnXgydhRFp5J7m2bLutZBvhJc9tDPO1mITD7BlTYY9doo7+2IrbnJ0ksMnA8VSHggvv8b00rWeUSzG/ENyxRWFfOcrHog3eTy2kbPsPNtnwygG13HnuXS2w87Zg17062rnnXfe8yOXzcftY3xt8Df/IcvG+cKux2rmpyhGk77gYx/72H9/9913/8goWmcoDhqTolChq3iD/QoBCgoFzHtzcVNA2ImvgHjiSr4n3Ip2/PTN2eiJzsheDUkxMxenuMlXqPjT+CJ+jPYUasSG3Ojm25pPIGPNVrHw/+yzz578f8j5xifXOWWrs2C/gorEzXd5gH18Y7m5Js3Z6fw6r+JqTaZ86BnxjWCfLTHgw5xv+sVhBPvylDu7XUsj6jyLp7PIF6LHRteQ/X4DAvGNyoeteOkDPljnix9nacyGsTMwL9bioWdMFuKTM2Y/kMs+GeMswxef4ih3yBZdc2Q+n8/Mb47o2Xd25GcfvRfM8wPtOetkIXvFPmxtjfnzl1122T3+Mty4hq8O8u32kz8/z+bC7sZq5qcoHnjggZs+8YlP/J1jx45dW1HpDW8NFRhv+kakaJNBmg0oDvgajTl5+hUUe5F9oK+5Kug1eJSMgm6teLGjmClciF92uwER+05988Z4RutyqzCyCfJLB8QwFzN++ETiqVB2PuRRNxA1JX47v84GFU8jiKkCzX488jDHzTabdM2L1X5nAnN+7NgzpzMjW8AWH/m1R895g/w6V3naj7JBnj47kVjYMHeDZb/46RrZnm/6gDxYdwbkrIvRyD5ZPsghdsQK8fhhwx69ztgeWJNpD+wVo5EuHhkk365dOuWQXjogznRh3gPy2WeTvNddlB8ysx/zdLJpvVN28E6M8enxZP7N7Wb+yriWvt2++XW1Ibd+9/wUwWrmpyBGETj785///P/5i1/84l8aBe8Cb+5IwUPe6FCR7s1vr0KGNDV6eGTbr5BEPX1nR1ExxqcT9QTN1tzUKo6KmKfi/les4mYPyPGDQCw712waK44KvzX/ySINBZLb+cmA2IEsXXHglQN9ozWyJjPLlX9xdbNQzvGLObIu53JzFqFrSpYtMuSzNZ/XTtt46dsTb41T7p0NftfNXhTKwbhzzg59/jq7iK/IXnnxW07xinX27VohtoBe+dM1dubZQ6EzITOfRTaiYqBLvteFEdIpPzrWbCJy+caffTTaI2tkuxtJSLc46OSnc/T6wp/thDE/MWQOX3PNNd+48MILnx7zlwa9OK7tpqEPOye/3b6wu/HdCrFwSuGpp566/Ktf/eqfGEVhX29sb/x+x9ybv0IwrxUIRWMuHIqUMZijuSghNhT/5LOfXWTuf0Hz61D2krVXU0w+P9bFU4GsSCp4M2/OVV7sZSdfiiW9irEx0sQjcuylL4ZyQPGL3dmOYrnJzxyZlxOwx65Ygc3sZdOeppFMcfWzaIXePtlZt8YrHiTfrgdqD97Mv9j4YjsbeMUzE549RFcsUEy9zhCbsPP8xDSvO8MaE8KbUR4ziaXmKp5yIls87MznQwaBs5UT0Eku2XLjp7PoGvJHhl5knXyvIfPAHhmUj0AfOmcxlkOUn3Lqj0D1miMD/LIx8vNk/sKw9do4o7PGa/9s49g7Y8S1SW7IfvcwFnY1VjM/xeANev/997/3gQce+Mh405+pkCgIiqTiWkGomFQwKjD2AK+ih4CtCpN99JvBXn6SMy8OPLasNTyFyNjaf6u5Z8+e0/bu3buRV5gUbHoVXPqaHOrXoVor0jWScqXLTk/f5mTnBpksEstsRz74ZPjOhqI9w54zIydWI9udNTv4FWD51vTt02fX2FwM/InVHB+KV6yIbTbw5vNEzrGzi7LvHI4ePXrasWPHNn40g7kZ7SQwZq/cxJNPY2jPiHaimLPV+XVDJC+8WZZv6HzE216ykC38Yuhapgf2kiOD6DqDSM7ztUkmgmSSC8XBd77oA9v2rdMpRtfNOXSj2JnbL3Y8cu2D3Aa9NtbHhuwrI54z0LB/+vDnt1s2tBFe2PVYH7OfYhhv3rM++9nP/rmvfOUrf2YU6PMUh4svvnhTEBWMir5i4E2vcFToK5r2FBbFiAw9chWiClcFBSrcFRe6IV22jGSKpQJmDewVo7niZC95+oFeT+dsakI1ouwGchqWER8pduVbbsbWwDZbYGRbbkY26KBk6HpSMtLNTzkDPtjjB+EVN3lxzjLOjk37ZPns/PKD2OBrtgfmeAjYZIOOEYqTDj50HVCxmmfXWbROH7LBr1zIsSUPfPvZI1N86eJnA9IJ1vzOfP7ZoYs/nwGyNqZn3bVG5Zi8PTd+5Ng2LxcgQ15OcisHfCDHBrveW6j3AP/JkzMi9p0he96TRjbozTdj2QDzwDe7bGxfixevvfbaO6666qqHxuvyhUHPj5uC58b76oURT//v+foS3CmA71W7hVMCx48f33vHHXf8IY3cm3ouCBWBioPi4qNhzce6NzS9oNBY06sIRvjGCtFMgQwbFcMaqjW+2BD/xeQJxJO52MSqoSPxadZs9CTe03g/Z2TXGNERo/jNFTjy/fqUPbDf2TRHxT5TZzLnm49Z37xPARBdsvbKs9zJpltMZMVbDEZrfOs5v+S7Jsg6CrM8mLuu+UfWXWu6NYbsZ2+2Q768w+xX7M7AdXImRuRa4APfvQ46h2IyF3sQB+QXnAl7yJyOvWy8GWW3c0Hipi+uzr7Xlj0y6UPnUv508Fxj8clnvs54sx6Um7GYu8FOP935HKzF81vglfHe2fzBmKHnV9FO/o65TWPzhd2N3/JVsLD78Pjjjx944IEHPjCmfr90UwTe7A1vT9HQJGv4ydkzKh4KjrU5qtia00k2mM9EXyOokSPzCt4M8bCtgCGx1fQQewpqVBMAe2Kp2GUbv+LINvCPslHDnHWg2MnNNwj5t09vbiz5m8+8scZgBHIV7HIVIz6Qm3XEEvjGn5sBHqLPZ/rtdw7GZLqurqUYkDV5lA3EX009sJFstoofzO3RcXauvxupXguoM5VLdpzDfCa9PrNNLogB0XeD0HcLxEqHvnN202oszrlZomJnC+TcOXu99FoBMmTZB/Gw0dq+9WxfDnyQneMP5UFG7r3uu9lOd0a20o3Etn32WyOPMwZv08QHb/O/p6GxtZr4KYTvVeGFXY9RzPwvaR8YT+dXjqKyVQGIvLmh4qz4VZjnAjDrgAKF2kcVpoq8EdhB7FYII0W7J7Keeszxgd0KX0WXX77sZdsc39yomPEln5ov23Pzo8Me23TIkvFk3++U72wyaLY1E3/4nV+IX84z7EX8IzHJteJtFON8hvmEcm6/GxpryHa6kf3OrXPtTOYYNB9r8jvtFHP82R95el2/fLS2L4f5ps7Zi79G2WsCxOE8jDXEGnr5o64PeB0AHpuuJ+DTLcea+GxbvM5jJ+TWteSn3MubXrkCG9nFn33Mcb8ZOtP0NPFeD3jlx69Y0JvZyodYhs4546z3DtmTDR0N/noiP8WwfmZ+CuGZZ5656F/+y3/5d+6///4/PIrB6QpABaFigCpG3vA1CbBXEVB4jIoYXXOj/bko9etjCgz9udCAka+d68iaHtuKLKr44/NPTpzmfPeEZe7j+Ap9NxjIHD+fM+VXrN1MsN28mw4Nx7wz4q/Cilrnt/zJ15zYmc+4c0Tm8mwurlnfmk3EVzmap0vWPH1rVJ7sha4Ze0CneSO99MnyR272Wbxs08uHeTT7bm7MPrIOsy4f+UQw5xHIZIddmP0jc8hWttF8loGO1wJi2/VzLazZIstGtmra1mK0H8+aj2Iozs63+Io1Hhte430aRabzm2Ob9Xfanc7r9MF/7corr3zg0ksvfWrY9DPz50dNeGHE5lfTNj8z35Zd2MVYzfwUwn333XfTz/zMz/zt0Vyv1uwUkp4KFAVvcm/4PmKuOHjj2zcqDhUQqDjVxOxV0Mh7+tHMYdZjm1xFZy5GNUiFhzy7ihfihx7ZKJvy0byR/IqLPKpgI3z7dPneWezEUZHGV7Rr5jXhiE7+EdtGcSNz/vlhqxsC885ZHM6n2MjjlX9xIv7p55devvOJh+bzIR/h22cv3yjZeMUNdOjybQ6zz/l86c32YPaRX2fQGtjtOqA5vs5kBh45aC9bre3P5xzI4ac/x8eu3LxGAn1EJ/Je6Vp0Bl0L1zFesVuzyQ8d/J025V+sYsxvRJd9dpMpx84u/XSy2T6d8h+vp3OGvaevvfba+8Z759nxPnthvH9eHLzNX4Ib/lYzPwWwmvkpglFwzr711lv/01tuueUvjTf5BT3h1tS98bff2JsCpUmBN/9c5MA4F1YFiq1Zrj1Pr57OKy4VJwVFMeJz5lV0gDy7il8fJ5IVI7vizKZ4NPsauZxQzbYCxvY8sk3XnO/8K9B0+cJrXsFE1sXNRj6dR0Xc6EyAXDbYL/fOq3zpmJPPHj/ko64PkKGX/3T457vcwBzYFzO5ZPHI488j0CuG8k6fLspvYz7ymc1QjvjFyi75dIz4xWEfWhu7tmAf4UE+8Mhaz/HIx342UGdFFlnPcvLvhjc+W529XHrNOgc5o8549mHMfjSfAWK/vKE88Nks3znvfAZ7s10wjtfR1vDv98rPuuaaa+6+5JJLDo24vzPif2nk8vKwv/liHH8Luxvf/wOXhV2JY8eO7fv1X//1PzqayN4KjLHmoUAgb3jFpeIwF6x4gbymMheh5NhQ9Iwal+bbU7q5PaSg0EMVGWC7glSc5uTo8YtqilBDKxfyCqrC2s1LuSeD7JGrCUX25MI+n+JG/FrjF/N8ZublZN5esRo7J+uILT7nGMRao5thrcB2PmSKeebLXRzsi8M+so86H7nP52Nszh7aGcObYafM3ASyIdZ88Ml/12jndapZib/zd/bOjq3OurOLAJ8cv3M+0OuOLJleUz1pR25E+75E+732xJK/cpqp3PJrBHrs8C/++TXQ6yKyH/IDZNmYZcuHDCrn1mIwkilGGDKnj/pwzZ133vmDI9cLRm7njtxP/vGYcVark58CWE/mpwC8Ge+4446PfPzjH/9vRtE6cOGFF4738+mbJ1lvbgVdwVNkFDC8njB649uvMBsVQ4WmImKN7FkrjvYPHz58slDiA7nQnK+KHX9+Hrhv3743NBm+xKi4KmQVOj4rXJCvYlZQ2chHzYsf+QZzRZKukX2xFzc9Z+a8iknzqTDy1dmZdx7GzoCP4gbruRCXrzng972DdMWGOjvy4hAPfaN4oBiAH2v72ZfP7JseOTrW5nzFE4Pzl4t1+XamxTBfz86gePkrLsQn/+azv84d5J0s20COTLLGN8s3WCebPL8zH+jw12us14XRddDY8Ttj599rDE/+XiNdk53x5ItNdrw2+Oo9Q4adzoWs0ZnTwSfHrrPI5qzbNbafHXvGYiquYXdryPgDUmdcfvnl94333eGRiyfzzd9nH3vrv0M9BfDb34ovvOUx3uRn3nfffe87evToteMNuvniG/ImB2/yCllFWEFSnMwrnskoCEAv3QqiYqMwKXiakLUiVLEiM2OOw565QojsVUAU0hp5T0ls5zP/SEzNZ4h7JxW7kT8E+cMnJ56LLrpoc4NxySWXbP7ynL9A56bDXmckFnnSN/ZpRPEquGwmZ/5mcA5z/ulk1xyRm2nODeibz4W4nNLZeQ3sI3PxRp3pLCPvbLFjbd55vNnrwwhzbOl7zSGvP82QLN+BPTacp+uDzFHnwh+77EXFZET28w18sOUv3CGvXeuezJ9++ukNuZZey/zQyQ7bNXE3SObQOaHWchIryha+WIqns5r18SJ79ItXjJ1FetAZQ/l21vM4aGvkd9lDDz307pHzhcPWecP+OcPWWcPW5i/CbYws7FqsZn4KwB+Kueuuu35kFIELxht6yxvYm1pRgAqFQumN7SlDIa2gkq84hwrDXGQUkRq5wufPf1Zg7ZOlt108NvNuGIK5BonM22OD3YpWsSuo7M4ExnkPZt+owlbs8gfz4hafn8Nr4AcOHDjtqquuOu2KK644bf/+/addeumlm71uPOjTU/A1AWdQsa0RaMbsop2F10i/xiQuNhE5us7Xvrn8XJea1NysZsi769XavLOlh9dZmYM5v+LojPiEbAJbrfk20k0nktN8U9frTRzF3TqesdceHbquf43LiJcPMkC3G9Iouzsp+840m+ZsGa2LW8zkZ5vF6b3iDxkhe8BGuSJzZyjW/JmDc+saAvkZXZ+IrXLv9TCj670TXSsx9x5Aw855Tz311FXjtXvRyPm8Edu5g3fWsHvmiGX9adddjtXMTwE8+eSTVz3yyCM/MN6M360wAwqFQjAXXmOFqUKosc8foc5QeOgoImxVCGdSaBSM+QaBnaimgvKtOfaxZT7Yz2ZPM6HiFNVcYC6mgM8PuxVlUAzZZd9NAx3xesryRK6Za96eyK3FSLdCiEBcbHQzo5GPm6k3NHTnJB8EYhKLkd/iQHLv+rCdLh7IFdEvr84AJYMXH5KvCeA7I5QsH9bFkE96XbMwy7DXa0HM5drZzk+35ZXvwD8/ztlrxrr8O4P0UfKR2Fy/Xr+Ra4Z6fdMjGw/mXOUS2CUnJtSnMsZ+/NLrmyyIjQ2xRnizD8j2/P7AE99Oiu+ayZGesblrC53n7Ideo32xJDd4p4/Xw9nj2rwDjXPe/Ox8yJz8T1cWdi/WBdzl8CZ8+OGH3z2eaK8Yb/6T17Oi3jgXl7mIVOgQPpm5MCENQaH2NKpYm1dsydPVAOcmiBQuhUTxUYgqjhVavoGNmgHiL79058JnxKs5KVYVT8CvkZUj1IDEr9GQE0vFutjERce+Mf/4NQtgS9Pq6Vxjr7nLQfxQzGygnXEX33zu5WOvGOixY0TAThTmOThX9iAbwH78nSjm/M0odnHK01k6i67dTPZ6nRhdg3yWFx6b4kHJ5CN5cczXotdP86im7vVW8+78y73YXb/iEg+ZXpvI2iczXteexu2RE2fnLC5zNsoVtZ/vXpPmUecbgZEfREYcxSQv82TnOMQV2bcXv3HE4L8/fW7EesaI9RyNfMzPHGe8+RIc2ggv7EqsZr7LMd6Q5/rzreMNeb4CVpFQPLz5e4PvxJvxAL/CpBhXiOcCbT9ZfjRBxa6PpCs+qAKGb7+PKPGN9thRtCtAFSsgF818RUxs6QTxzLmRES/5GgSQE6e4KpLp8TPva/TdrJRjOXQ+PZF2s5MfPvkW585YZ9ijU7xicTYz7cyNDtn0OsPIepbvrOnMstD5GMnwJb/ZL3I2xnTdcM3N3FngxWcDyIqx11VEBp9NvjrX+VoHfPvItel11rx1vObZNbLLH9+uV/nad127CYjmGz3n4IyQM+zsAG/ndQA+I/F3jmDkHxp73fkkoFjSL4f5enQdimfnte0sB+/E0D+8f//+hwfvtSF3Jhr81chPEXzvnb6wKzGK4zlHjhy5arzpz1YAvOErDObgTe9NPRcB2H6TnyxCoFh0U5AdMhFe9shohArdTIofPv81vz7ONtIL7MBcfOjRR2Qj8duv0M/FSkzGqP2KWznisaVIspddSE6O+M5B/DP1M9Pm8xM90New2Mp/vrMtPnGjea9YoXNAYjWmA+wUL3/IPL/xk3c+8uSbLpleB28GcvZ3nms20uVDY9zpf2feqCbfmqxz7jVU4+xMjTUzfvmUj3U8ayPC64ySieInl65z5avrOV9jr9fy70yRXLtZMVoj+cgbipX9nXFk882QTmfiNZiNdDpf4xyLmynjzmthPuRfuuSSS+7bs2fPoY2RCeP1sBr5KYDVzHc5xpv3HUePHr10FL0zvPEViu0377bEd1EBMULzipPRWhHpqUABSRbsKzYVHIW2RlbRrRDViH0jvKKEZ58dDUWMCk4FSQyQHWNU8aVrHszRnNubgS9+FDfybLLXHv89KZLr/MRejuVZfvh9BKvx2BdHuRmLbUb+ycsZOQcE8rDXGRZr+YM8KtT0soOXLetZfj4jI7vGnTEmF+0EXjKz/+IPfPoxBPLFRufrXOiVn9eHBur8vO467xprZ1/+0XzNjZ0NfnNj5yQ21wNf3nzz53p6bfKT//bEIF66XhORXI19UhWv14x4ULF0DaPi24ni72wiOiCOGnfErxjQHA9Z8WzH6q78mUsvvfTBYe/F4ecN/+EKGvF+9859Ydfi+19RC7sKo1BeNN7g+0YR2FRjhQsUAG9kBQLPG91c8QJFw9ob3seNCoM1AkVEMdWsFFrrClON2dyo8Jnni1+Elwy/fAKfFUO+K0LFS6ebg3yyocgBWX7wIBkjKNoosKsI1mwUWvLsyUVc7NExIrxydA6+IIc0H1+S82331jWAzor9/FdYodyy6xxQ58CvHMrD2Ll1XYqzM4aaiT2jNYhHLCAGVAxdK/tiYNOcT3uoWDonIxl28s9Gtq3LRfOOOnv77Dqvzso8snbWqDPqbM0hv4jNOWdzKJ75NQD2kRjkUvNm27qncf7odu28N+SQffwaafkBu65VBI3OuLhQseDTN86vCXGxRxbIlnfX1PtAHN0wkZn90Rff4L0+rt/Riy+++PC4nq8NP6+g8dryF+BeHXLrP145BbCa+S7HeLNePN7U/krMZl2BAMWhggT2oCINZGbdCgK+AlfBNcejZ2yfbgTN2ajosFkhihShGnlUUZvBx1ygyiWIZ/Y9+yVfIwF8+2xqTnMxD+zhaSg9cSOyNZueGhV+/Hj0ajxdh856PjdxahZIbJG1veTEal0+ZJydaxrJz4hvn192+MYzh/mcis3+myE5mK87zLb5JWtt7nr2K3uaiGtKzj4C8p0F225WGss76trPsXdm7Bnn3OPLrxyNM58dNvPRjemcZ77Il6fG2Y1K34vAKx/67Mwkp2Ip7mIxztcm3+Ca8pt/stmJV97dBNIvbqDjWrCpSY/Xpj/h+uKQ2zTxEe/mz7laD5nNn3TdVl3Ypfje1V/YdRhv4tPHG9YfgPD7oieLBFIQNExFp0KmeCBvfMXHG10xs4adBUYxUpTsayhsgHk25sIHc0EBfLHNTcdcXHPRF6t9MQS6eIgMPTzFWFxiT45eMYCc+VJw6VtDcWu8SJ54EV4NPBl+UHs18vGks3kyR8019c62s4SKfueIihFZ23Pm9LOB6Non1zWt4MvP2Ll1/nzjZRuffbDutTCDTPpk04kX2M12Y9cQFZu9fAE7nbf8em39ZkQ2zHE4t15P81lExbeTYOcZd43F0lkDO3Jp9DrtCZhPMXgd9h7JXrGb9/qU/3ytxWKMN18Paw2aH357/abX6wDF7+akvfI1n87y9SH32qBXNfERX3+b3V+A23zkPs5mNfRdjDe+Sxd2Fcabf2sUmfPHm/9MBcYbWDHypvZGVxSM+IAPvfm33+Qni6Z9BQZVXOJXQCoWoDCSrXiYk01ekUWKkvgq+BXhfk2MDP10A//k02HTvnjlwH++kf25+CE22nc2iq/ibWQDnx0Fuadv+84Gv/MsrnxXvGvsPaXXHNIvjmKIZh5kUwOoycEsL6/5LGY74iteIypuPATlkQykM+uG/KUH2TLacy1dQzJyKP7Zpvx6rc2vu/hGstku9vKD4sJznfk1T2am+NlBwA//YkQ1453nXV5seB910+n1RKebOtfaNcOTRzmIdc4TxFADL0Yjm/i9D+S280a3XHo9p9trjU/74kbgWsh3+4w3QYz5q0N+83RutB66q5GfAljNfBdjvHlPHw3xnaPYnOXNr+h4Q3vz9ub25t8JhQZ5f1cUAvmKS406nrmCo1goMOZGxSc7fAJdcmKayUd/ipTRmj7ZneAvW2KVE+DzVTGfwT97fQwqPrbJI9jZbOL1kbp5xTdf5WssVuebnqJOtxuB7JMRUzZQc6M9IEuP/vzRP/3k5YKs0XxtOndzOdEDIzvlQy6fkNwMvIitrgHgsdW52et1gOzJfT5D/meyN693gs3ilOfO2J1FPuPBHFNkr/dCpOlqvsXRyA/5+Wz5ifhly/XZ+SMVuuXTmi8x5L8x2HO9yIu9POjie/16HfOL2g9skRWHMR6UQ9dh8P3q2eYNNNabp/No7K1GfopgNfNdjPEG3RpN7R2jKZ7ZXyFTBGo4CkhFzhu9QlNDQOSNyZBXaFqn15OHPYVUgdNQdxa82ba1mwxFSePe+VFlclAh5I+PCmqxBGuk4NkXU3kBHr/i4YNPviuIsz025qfxuQkVQzcN3XjI3R45Z1ITrqE3ahhzXJ1H51Rxnu0UwxwHuXQ7LzxxiEt8XQdjTU5u4pzPdNZvvzGYR/bKgY328dlAyfZaAeeWH/ry2dlEkddnoJNe1z7/7Fp3TY3kgtdsvnfmY6/9/IoFtUZQDNlAzpQvMnMj7/oA23KRnz1NHo8+32TnONKxDvklS0+OCM9eOWUPOcvZXmcLcw5jz3+DuvmTrQMnxvrkN9ijjdLCrsZ3XwkLuxLjjer6neHN6s2r4FVEe/MrMt7o3vze6OZkNFhkTnbeD80rHBWPil5+2FBkszlTnxhUnGpAwB+qCGafXVTz06D4qGnZGwVoowvlCvjFlLw1u/Iop9ZzE2UPD8pJ7N2A+DRBLHIHZ0uHLhsaOfKRu7Gn1HIq/86Aj+zkFzrX8rImGzkXNsTjjOebJPHaq/nTRdZobgz4XceKvzFKzjy/8jcWn7idQa+zYsR3U+MMkGtcAyUL2SDPrvMp7nwbe70l355rDV3T+DBfZ0RWTK5H1xq1X447feOn1w0aW3JA+PaLxZhvurAzruSTm8Em+eJIbieJg29ozu48L34Y4ybAYW/DMEbWC7sf3/9qWthVGAXyxHhiONHTZQUqKAZQAbBWKGoooIB48yNycxGoELWPoH2o+LCnmSCNBvFTA65xgFjEq9AbPfWYZ38urNlX8OeGjm+cZcU/F0R+FOGemPmo4PFL1pmUmzUbmoo8NMtympvwnD+97PHRtUBdD7nTY1f83aB0LuJNJj5e16/98hKHeIpNQy/WYkT8odnfDHnMtmciO585Mi82eSH5yxP4YNN5+FKgEdXIu77Zj+jlw9w+yFEMwFc2OhdIFuY5GTpgnF/n5r1OomKZbfAXsZccG65vrye8+Zyzgd9rZY4lYof+fD74fPVaRDv17JE370apPTE5cxDHuLb++ttLw/YbL/7CKYX1/5nvYow36Zn33HPPh+67774/Md7M5+EpJAqBNzfyplYgjBUjY0XcvDU5hUFBwNOUQEFit8LUPn1zPHvWipmiZo0qoORATIpgxcfcSM6cLBtskQH2i9d+RawYKvZzYdWcyJLBY79YrDsbc0Que3Nj0Uy6KYFZXgxRvoAN/sURz1qcSC5Az5pc6/ybdy3oOlONtMZqTbbGbc6XOOjkV9ztdU2gHK3Lhx888mywFWXPHlh3TYzyYNMZuzFD5l5DzpqPzh/o8Cf+ziW/kTXKd+ha4rvmbMmDDl/4remXX2dNFw/yhd9+9uiKkS4iZ+xMgAz5fDoDhAfOE5KZaSeP/fyxb99rAPhhH+x1ns4Z+LRvD588Hptj/eoll1zywPXXX3/nuB7PReP99oImP/Z9m91T+sbWwu7E9x7hFnYdxhvwdW/GUcBe0wiR4uZNqSh4c3szI6ggeJO3D+1bk1EQNDqkOCoOQRFpzzxqna1Q00TFl7xCZcRrPsuJg75RXFDhAzkge8aanCKY385FU8luNmdbdNhQ0NnQBFFP5Ih9+xVOlH+Qe7mVV+fTGdJl00fiR44c2fznLG4WrH3vwR6b5PqiYKMYunaBj/zAHDvqeqPQuhyas9vrpXNxTkj8xvKJH8WjR1b+rmkNyx67+ROns+y8Z2ofFZczRsU3+5a/a8tn8SF+yQaxsFHe0Xz9IBl+00Hm8z4Co5jLhV4UOj9UfOZzfPlBIP6Zl38ors5mPuP2YcQ2pideuvDCCw+O/VeH3MmP1xGZeb6we7GezHcxxpt06/HHH7/2rrvu+s9Gg7pIUdvmb0ZvbrwKSUXHSMYbX1GxP97MG6oQVyBBkeopbtZhk06N09gefcXcSM5+BdearD3y5uywD/EiqGjRtR9PPFEoB7rkrYtr5vFJz1hhdD6eFvu4WrPVFBVpoBulD+YInG25NLJvzn5+2OxaGZ2zUaxGZ96TeHv82Y88mZVTMc2x8Ikq+PkpDmsjHpnOeD5PsEb5IJduetb2xdO1xXPW+EAeFdN8PpDtOW6Ez7+xOZv22EfAX+AnebbkTJ7ezusPdO3TI9s54ZOTjxHhReS6RsWLyg3yM+uDET/5zibbYm0eds5bN+Zf7MOWH8EdvOmmm742ns6fGq+XFy644ILnBj073o9veDLfKC/sWqxmvstx6NChy772ta/96VFA92meFTg0Fx8FowJuXjOo8CbXumaoQChSPSUFfugba9Tko3hs8ad49vTNT3oVMvY1Lv7okzUCXr7pVrjpZbuiZ79Ggofa3zmnWwGskM4NFPkNgZ62Ords8AXZEA+55vatycab8wBrxAfqrMWAkuezc43kyXbXkQy74pzts9nZGK3FZV3MEV0E9rxmgGx5Q2fHFh90rcUits432WyRC/miF7HVOZE3D8mj8uSfT+viwId0s+tcjWTTj8gi+sbOiDz9ztlIN/muW7bxwBx1LmDPPN1sQzHO1F5xzPzkQ/YQ+e1Gbv7S1Vdf/Y0bb7zxrvF0/uxo7M8bp2b+8shpNfNTAKuZ72KMN7RfTTvvtttu+8/Hm/lKT2kKTW/kihbqze9Nb11jUJxqBIqaBmGtcCE67FWIs0GWPpma9NxM8K3tAX62Wwd2e7LBzxayB2yCPMwraHSs26fDh7zEWQG2X2zG5vTZkV8fTWuivkwmJh9xi6FzQ+zxQ5+uPZQc2EPQOZOd9VF50DOKpyaeP/m4ts4vv10feuXYXmDDupig6xlPzChe+vHFBOwj8QA7jWLWzMiLQbyIrfK2lw5e4BPZy6d1r7f8BbbwipOtbmro2BdDZ7czT2sy5NnoDEEMxWJEbAL5zpweGXbKO9tgtO61hWAeyxfyld5si6/4O23Za589sfLZfOh4Kn/sIx/5yK379+9/UvPWxC+66KJnNPSx/s54bW6a+bCzmvkux2rmuxjjDb013rRnjWb+f3r66affNd6cW4pNb2pv+ApbBcEbHU8BJAtzYbPX2pwNtticbVTYyKB5rpBrYHNRj0+uAgTsVxD5rfG1R45uMQFee2IJ8iRrBDKomFG6reVl1Lh9tK6JIw21Jy46CMqFj/IojmyBfSTubmLI842H7Hce1s0ReT/nN/qEw7xm3lkUAx6C9PkB+uRgzrszMYob2U83yhcY5drrgS4ZZzT/KEIsrqN8Zv/0zYubLTr5RyGfM/CibDoTc3GIp+thnQ8wst/1ma9BtoBcZ5RNINNrHB+RyT7g5QfRJZ/9ckouP+aznn0ovrAz/+TS5Y8947ad77z73e/+8k033fRNH697KtfIL7744qc19XGj/Z1xffxtdr9zvrG1sHuxmvkux3jjnvGVr3zlhx955JEPjaJ/uuLpzaxI9qavWODjkUGKUwUBv8JDjrw5qnjPsvhz81F46KNsG+0p7DVp69kGPxoBH+TJAV/ZroiSb69CaF4hM0fmeKimbE4+/c4kXc18buJ4s490ZnRO+TY3irP8jHKSm7UzmPOhU9E2Ig2qHzP0RF5zTBexDUZxFkf28MlZJ2MfkjcWNxmy2WeDP/xZr9eDeeeHZ0RQDMXRCGyRd+b0zTtzsZCLAv1GVF7GcqEb8YHmeXJAN/2d8ZEpvzmmfJrj2Wc3PTzy+MjadbOPZtl05Z5eZwh89f4pTuteA+KlT7dYjGA+7Lw2GvejP/ADP/DFffv2HdG4x9O4Rn5cQx+N/bkRm5+X+ytw65vspwBWM9/dGO/BrRP333//jd/61rd+dDTzsxX+igT0Jq9gKAKKAjlFgSyCCpoiS9Y+WWv2yPWmJ6vIpGOMH/hUhGpG9ipi5ogfTZT9ihWwWTFjg6x58dKjgye+PppG1kiDmAsdOxXx7FVAjekAeftGsrMdVAzFkw5kH/DkMRd1Oc4x1LDxzP3RGaO1fTCSl0NnxK+YxSXu5uTS5T8/xZdNDQuKP9vibW6EbKDkzV07PvGcB2rNX2c0+xSn62WsmZsb6XTO9MqD//JC4kL2kgcyQNfcHhjn2NLPfjbtialmnjykA/wVIxiTR8C/M2QfFSPZWR6fv86P3vxe4LObua4Ne2xkM58w+CeGzPH3ve99X7rhhhvuHXXBU/lz43X1dM3ck/qw6T9aWT8vP0WwmvnuxnhPb512+PDhS770pS/9ybE+35seKU4Vr4qlN39FQUGoGJFprAHOBYNuRRlpPN00KDwKUU3Qmh5iI9tgzGcjXb92JUax0YfZv1wqiuki63LTHMwjduiwb8y2eORCRsxGDckX3Yzs5k/hBHoI3ygGNtguV3uIPj4/xSgXe8aotY/Ps62BeyLH59+e0X5xWOeHj/wjaCTLDogX8hvM2cDvdZNM5+x8aiDBtceb43CWSO549PGLvbjsoa6BT2XItUb5xuva5VMceEY2kxeLtXnnSW62x4/RHiKH2Hbu5LyW5MG3tXzIdi7lkS0jolcu4kRks2NefGLqrMhbk7Pvmo8n6M0o70svvXQT23yOiO/5rGfeiOXVyy+//O4PfOADt2vemrmn8j179hyz9m32YXPz36EOu+sj9lMEq5nvYngTjjfy1igi7/z85z//J8eb+JLxJt1SnHrTa1CgGChIFUN7eApApCjMRcpaAVN4Wlc40rWPB+atER3FpfXMjxSxiqC4AK99RVFRq3lU1Iq5wqiYZi+qECffPn46frc7XbbFQEeOdBTSijOqicjDPnvmdFFnkw17RiDLT2ALyPq5OOoM+HId7XXdsjc3gjlve5Bc80Zx4ZMXOxT3TsrvrF/+Ac+aPLudB2puLBZ+o+Qi1xGRZ885OPt88C2m4iPHTvHN/oz2eu0l25kBPXbcQGXbnrMtjnSLJ//lwwaafQKZ9uZGTGZnDOD1PZrsafv37z9tNOHT9u3bt2noYqPbGfNfHJAPVEzsD/ljo5F/4aqrrnrEE7ifj2viSFMfvOeHz/VUfophNfPdj61RTM647bbbfujJJ5+8cTSEM7qrVwT8YZLe8IoAMlcc5gJQETNXnCA5xad5xS0+e+y0DxU3tvDJkUHt1YTtearObnpAXvHCl8tcUIFtMmwUIwL22ssmfxGfbnTwybGvqPNhzo9RMe7JrX3ILlt8gbjSKzYys6y8rcE+uFY9ldMHvlrzyR4/nRt71vkGssXYWXRWfEX8I/P5TKNyQOzPsqicYI4h+zNqjOQ7g5lcA9fCfLbVmViLp3zmWIuB3c4VZWeOcd7Ljvy8V7pebMzxem0YOxMjufaN5WS0zxZZsO51148VzIvFWe3du3fzYxWNHGnqburYyGfXwtz5GxF9/PncR0wvXXPNNV8bzfxrnsA1cx+vj6dyzXzzxbfxel5P5acgVjPf5Rhv4vF+3Hr9vvvuu+nee+/9wfHmPdtdvTc5ePL0hlUYjIpBjR4UAYVIoakgJqdgmCtaFZaKBlTo7KOQTraao6DI4Rv5Jgdi4aMCFvEvJs1K/Nb4ZIsJrziLvfj4YVsM5FuzN+tlVwNXVI1k5iY5Yy7+RiimfJRjZ4zil5uR/86o68ROZ5gOXjkWN/3OppzKn3zxNeLlJxvko+wna04Oige/eKyBTPaMYraHyMq9xmb0qQw+Wc27a1suNbZ8QjHyy1522+fbHt+Ab43osVfeffphz9mwRZ7ufE0hv3j2uh757hqmi/oRUv47l3LSwOcbOTJssmHOLrkZxdCeG4RtH6+Pczv0wQ9+0K+iPTXO7juat0aOtp/KN38oZvhaT+WnGFYzPzWwdejQocvvvPPOHxtF4YLxhh3v8e++yRVMRaIiokD2lJlMxUnxwEu+YqK4WKONsyEDFZP0jXSSM4cKG6TbqKizb01eEaMvvpq3Ihnh7aQK/9yAG5Op0GajHPltD68zUmBRdvCST9codhC3szQqrMjZG/FRRdrYmYgFbyY+yt+8a9Be8ZeLsbk47ZGL6NPlzxkbi7+cUHrQiMcuOXaM+et6Q3bIzyDTKIfOorMCttyA+njZU6rc2UOjGW32zYGPcmCveTmRLfZk+EbFt5OKXTzlRNe6PZR9sIfIusat+WvNVu81ZN77z9hrqrPpNdPZ4DdCsc3xmdNBg/fSVVdddcd73vOeb4zX7vPnn3/+c57Gp6fy58Zr+aVxPT2Vr2+wn2JYzXz3Y7wnN0357Lvvvvujzz333DWjcJzuja84ePJRMCpKipHibJ6MvZqCoqPA2VcwwGgdkZ0LbgWtwpkcVIjngsQe2Yof/Yqq/eLJV3sh+3g12nmMWlc8K6rznG0jGY27Bm6kWzMnk+8aRjEU90wVW2M3LBXiZEKFHNkHNtmH9u3x3TXMdzyUXr4gf/YgHTbItJ51y8/cGYF8oHU5FSe+edcrgmJgoyZEzrVw9pq5j5h97N1Zz687stktrvYB37488Ox1DcgWJyrXKB2ycqInVqO9/Bpn22S9v1wbDdjIBtleQ/3IKxtQHNZ0soXYMbKTH7F3ftY799gY9NrevXsfuvnmm7906aWXbv5s6zjTNzyVj3P2R2JeGn79f+brqfwUw2rmuxyKwnhDb4036cv333//Dffdd99HRuE4y5vcm94fQpmb76RzskjYq8GR1bzSUcyAbjKKb0WKDzYUIU1LgalQsU/ffr7IbxefDeGTzTfd/MBcSENrxN7Mo58OG2wpqjMptKgmIhdPgEb7+HTZKQeQG8xFtVwbyRYLlHeFF9GzxvdEVSHfWcTN8boZID/nF4m1XON1ruyAudgQ/Ub25jkYy4ffYm2/2PIx6xWbMcLvDIyIT9fbdei1Nl8bNsDrqljy056RTSN7bCQ3xzzriods8nLweiczv4bl17XIBln7GrjR67eb5cCu15EbE6+tfJd/cTUHdlvnM/+dF5leI/bn+YjjxDjDI+OJ/IvXXnvtveMcN0/l2z8rP+ZX0azH62P9XvkpjNXMTw2M9+bWiWeeeeadX//61390vMEvUlS8YRUdxVGhVMgUBXwFtEKrCVgrPPQ0s3QqkPYrujU+etsf7238NJ8L+FwU+X4zIs8W2+b8iIO+Mb/FQLaYwV76CrN5OUC51CzEbr9mjkeHr84NiU2BB3M5VGDxkYJqD+gUvzPrPCvIQL9CjNjAyz5e52Xspie/fEAxdi59etDZA/90m9sTTzJGfvHspwfFX+z5AjHidT3SM7I3Ex2y8mkEtum6Fp2Za+C1heixJ297ZOh3NqF5NsopX9nBMyYXgbOz7zWM6CE2vKbpiJdvzbv/hIcMPfpeQ71+5GTNt/18Q7EE82LNXmdPNh7iv/x7/Tz//POMPXvdddd97aabbvoNDVwz9ySukft4vafyEY+/9rb+dOspitXMTxF4g4438XN33nnnR44dO3bTeOP6lvsbCofioshUeBQpBUFTI6coaXjJJoNfs1Bw8UDBqWniaRwVOYUI4YujJ5m5MFes6OMrVHyyyba9/PNtTQ/Pvpizh4rXSB6VD1/lJwc+NQ120kdQ86yAAjl2jeXG/k598eDzxQ/Eo0Me5OHs+TLv7MzJGDUO/unzTR6vc+ici80azdccX67823MdOjfEPv3iMhavfMq1fbrIGp+sWEJyePmZY8SXh7Uzyoa5OOPlo2vhbBA+O0a5FIdY8REePyjf8kGuCX/kjMCWsxFXZ9i1MWeDb03cuuvca6jXK4hfM7dPttdReUZ00uucITtip0/WvBuNzsM46PWhe2w8jX/1ve99722jeR8dMb3hV9G2m/sLI66+9Pa9i7VwSmE181MDW6NgbI0366tHjhy59IEHHvjD4017rgKhKClcCpniYVQwFAhFwYin4FTw7CtKCglddpCik4w9vAqhJlOxJcdGRRgP8NmDeGx1g5CffLJrLpbiolf89meylw1UHMUkf3GD2FBP11FNI3vNyRr5hXJBnUeUX6TgG9ORa/nG54dtMYO5WPhi377ijUeHP/rJofLAyx4ia13c1s6BL3z2ijn/eM0h2cZspTvbigCv+GHm82dP4+sMUX75QHIgC+UKdLpZKnZ2yzvf4jOS4Z9cVFxAZ0ej3Jwp0GXHtbzssss230DvV8rszTcIiB+2ix+B/Hot80+Xv+Kxpg/0kf3OO3t4o7FrzEdGI799PJH/+ohn08jHefrS2+bn5Ebrcb03v4o27K9fRTuFsZr5KYDeoOPNfWK84U9885vf/KHxZr9srDcbCo2CUyFREBQqd/oKCH5yNfxoLkxG8lDxw2dL07MmX7MiT868YjfFenJdAYyf33zZr8ixV1Hjt3lUwW8uBmPxI3HKXcx+z7nC3Q2JOX06xSd+ccmtsRueeW2OJ3a65mCOh+Q22y1e/M6zmMFeNxMIyttoj3x2QJ74YmIX8Vd81mTmeEOxR8XR+UF79O0ng5fteGLCz27IBrAjvjkOe84Czx575ZkuKj8oxnh0m6P8NXZmjWhuoOTEhtx4aOKexjszDd6ec+61AfasEb/xEOTHCOVh37wz9drsLMk7j/EafXW8T58YTfwL73rXu74xYjri6Xu7kfftdV96W//N6dsIq5mfQhhv+i1v3oMHD17x2GOPfWCszxlv4K2KuMKiUFQUFIq54ChImnlNBshXICP6mmFNTwNE+IoROxU3xS57SFFi056Y2MgPXTLFVAEXm5Ev/pvzV5EzVuiR3GrSYhNv/Bq5UTM31sjJAD988N35ITHy1TnID689ssZyIVP+ZIof8OzNyC8Si/g7m3hsgtjw2EPN57HYu8btmRcjGT7AaA+JpXjppftmcvjZjVec6QS6UfmJUSx0+QmuSzkgsuzRQ/nCJ5f/UA7NyTWPxMmn0fmWZ/uuMeo1nX9yGjzwac+Zgljt0YHs0fEa7DrOftgQH7K2l8y2/OtD/9n9+/d/4wMf+MDnrr/++rv9PNx7ftxg1MiPaeb97HzEtL709jbBauanDjbv1PGGfX286U/ce++9H3r66aevGMVlsL5b6Cp2CopiYa0A+Tky/tzMax50I1BY8BEoNjOxQ5+tCiDEp2+sMCtsfMUTj6KOh4q34iduqNjZq+i9GWkGFc/kauKat5+DKsxkEBn+gex8cyMefosB5CjGzqe4ET18c7k5i/KmEyXPN5Sz+IqJz3JtjeRnxBNvMoDP7rxvzL+95mA+r9Pp/NiBWT+eEc18us6NfLCHnA3io2tPV/yIDh47+UvHmu2aedd2zq3Y4yOY12iWlacz99pgE7wePY0jzbmGLTZP6NbAjlw7D/teG2yLqbztl59cym/OE4G1uEYsJ0auLw/7T11zzTW3v//977/tsssuO+hpHHkCf5NG7ufkPl5/dfj18fr3XrQLpyRWMz9F4I3/3WHzRS9P5/sfeuihD45icm5FS/EAhUNhUWwUIA3LvsJU82JHQVN4jKiijgdk2JoJ2GI/fxoOXo3MnvkclzWynmE9NxP69BAY8Y3iUuA164iegpieffE8++yzG7KXHSQ2TVdM1m506JYrFD85c0h/PoPywgfynTke3/M54fFjLZfyLidz+2Cu6dgjS7frkm+2OxM5p8+/kf/OdCcVnxgQO+2xz7bRmq/22gc2yOF1jYwoG+3bKwc8jXI0qI0sXmeRHD4YxSlHMtlA5RfPur34qPPNjlFOmvcVV1xx2pVXXrn5OXlP2t4nXhcavLVrTN65GuVGpmaevPdW+ZKZXxtGMdlrLc5xc7F5Gt+3b9+dN91005fe9a533alpD9ub/5/ck7mP1Gvk1sPX8yOuF4f99e31txFWMz/1sDWKysvjzX787rvv9nR+1Xgzbz5qBwWioq6YzEUlnoIDiponFYXOn6WseVQk2aJjDmxZR2DUSNhVzEDRUwTtVfwQv2yxX+FWoCu00P7s21jxo9c+ss822BOLPIxsi0WxFY95sRnFRp8dNvkw4gU8dtnauQd847HFD7vZlG85d/7W5WME++wbs8ena0HOuviSyYazI0eeT3vIHh6QnQn461qTIw/yEGN2+Osavpl/stD16IzsZ2M+X3BOoymdNprTSZsIyIrNCOzYo1+szbOL2LHOTsie/WyJWaP2ZTf/a5mbCq8Je8VT/NnAj+xly9r5uO6dUfGAeOezRoN3Yly314aMn3k/cMMNN/zazTfffNu4sXh8NPDN31v3sfp4AvfrZ8dHrJtfQbO2N95nm0Y+/K0/DvM2wmrmpxAUkG34IzLfGU3rnY899tgPjGJz3tiDk4VDMVFcNFmFRlGxb220p7BoBhqfZl4DtK9Q2Z8LnCJYYSeDrzDTqZnj8edJhTy9bNCpuFYgPT2LAdjFs5+/YshnhZM/vuOxJ+9yAHzkKVA8rekp3myieEa2+WUX3OxsF+CTMYsHyo2O3Nkofjb4pEMfnxwfePTy1zWaz4t/a7KIf9QemzUIOZAF6+wjsNf5pSvG+Tog8aB8G9lonl3zdOSc7/x1rviIHF16nbfzcg3sW7PjDMjKU2zm2QL2xY7yn+3sA5vpsYkfzxxPA9fIk3OW3cyibpLwIq+F9pMRq3kx4/WaEa/1ti0fpY9wX39pxHB8vDYeuuqqq26/8cYbv3L11Vffr4mPxv6d6Wl880U3T+TmPmq3P86sj9bXF97eZljN/BSFN/IogM888MAD73r88cevHeszNQXFrSJj3tOyxjKKwaaY2VOcFB/N1FwTVIAUvRpLxbECrugBuwiPTsBToBVmsoq0mOjPxQ7VSNKDfPDPDl169PM3F2V8a/bIioVNfs19bFojF1P27dPLlnHOOTvs9rvH5Vx8xcAWAkXcWZIjIybnnw9r/HSQfdcFxCjmYmSfLXlC/kCM/InNteO3a0EO2LFfvM5c48neTp5YxIjPRtfRnB3ozADPOszXKDnxso1v7Hp6MvfRtrlzrlGa91px9mxC10eOci1mBHzZ588c2aPvfM3ZlBPfRn4idtlkWyziRZ1rcuzJ25w9MBd3lB3xP/30068NfV9S82tkD4+c7/B744O+Ppr5vaNRHxuvz5M/G/fz8MGriW9+Pq7Ba+QjZj9XXz8jf5vC7ydvTxdOFYyCcvooIGeNYnH+V77ylR/76Z/+6X98+PDhPzLe+GcpYopJhfaSSy7ZFDjNUaMwggaAyBoVIbpzw1HMjDWJ5oqYokaOPb6sa0Z4bOGBGwYFEip8QE4DYdPrVLyIboW5XLIFs+3y5ZsP9kGMmrh4FHP7dNiCfAEb2axQi8mcbXl2Js6HLWsol86FPDvJiwHffj46g2KBUfRP5mSvWBrpAxvFHdgjg19DbnSuztkemXyKE/HVmZErL7Gbt9d5BHz65LxOsi1eMQKd+RpaZ8/r0v/tnY/y9Fq0Jis2ujVYdl1LcXYN7M8o7s6IXeuuAX1ErjMhk/95DeSKu5uDZI3V1zGeGLwTQ+714euVQU+PGA+P19+RkevBvXv3PjFuLJ8evp8fNl8dMb2CxjV6eeTz4rhe3xmvlc2faUXmQ3bzJTcyZEe8m5+Pr0b+9sRq5qcgxjXdGoXjjFHIzjl+/PjFn/vc5/70L/3SL/3DsX7vKAon/xMWhe7AgQOboqX4aSyKvH2FUoHsCUKxUiQVuhqGImjOTq8jcgoukEcKG+SDDaCj0GtU9NgjS599T0gVVAWTL0SnOb0KKOAVF7maBTvlzJ6R3LjB2YxiI88eOXN8+oEP+5G1/bmB1yTx7fNDtvM0B/ti8skAiDcd+de0gFxf1iPXeVsb82EP2KAjHrnW9OZ4XQOxylPs5CG7xQDs2qc7n4u5s2IX8WVkQzyIHv1ksmdun53ywBMnm2J0/cfT6Unf5L0WA1mvT/9n/7FjxzY23Jy5pl539PwXwOyWw5xHcViDvJwLGbmUK7/lCUbr8uv1aWw+oHF7U1h4Wn5h0DPjrI8PHwfHk/Vj+/bt89+UPl8zHnG8iszxhuxLmrVGjmrgCN8+2WF385fdEMcLb0+sZn6KYhSc00dROXM0kHccOnRo/y/8wi/8tdHU/854w18xCsOWgqNYK16Rol6BA3MNSEFMVvNR4MgquBVwo+JKzpyufVAsFT06bMSvcVQo2aWHZ64ws5lcOsAeWQUV6Fvj082WtXiALHuNbFX007Gn+YF48wNiYItMZ1Tz7vyyA8nypQk5G2v2kq2Z0rem000UWT7t0y1HfLA2T5b+nK+48OWDzLNhj/wctz1nMsc7ywDd/JDv2vHZ2Dkhfti0h+gjMuLx2ujalptYyfLjS2h8u072xBTIPfzwwyd9Zt81ETOdruV8EwJkgQx5Iz/k+KBXrmzPOfDX6yh+MQyeJu4C+ctrR8YNyWHjeC17Cvfk7ffCN7//PWxvGrgxGue1aeLGEdOLMw07m//1bNYd12E9jS9ssJr5KYpxXf1t9tNHsT17FKfz/CGZT37yk3/9tttu++ujmFw5isWWmqNoa5qatAKo2CloFV2F6qmnnjrt6NGjm7Una/IVS8V8FJZNIfOErQgq9OzQBbKoxojAfg3DHpgrqkZy7CY/F1Axzj4UU/PWQK9YgA6wUUHOFn/I+ru1+LvNsHizvdM/HXLyM+IlL3bnu13kN2fDJ5Qj0PUUSh/IknO2Rvt02WQ7G+XsqZ2O68GmebKzLXMkHrDPtlj4lhdZxB9Z9nptkEddx9keXaOYamx4YhJL+87H2ZGhy1Z5sBmfrDX/bHjNWffphnz6UqZmTI6OuNmwlpM98tnPNwJP8fLjA9j1lO8MnEvXCbHBlr1itpbbWGvi/jjLofHUfdcVV1xx77imR4bdzZfSRp6vDRsnn76R9YjxZTT8bBr4bzYi8tlgb/haPxtfOIn1BbhTFIoWCorBKFyHRuE/dzyp3zQKDGyKYUVT4dNUFLeKGJ7CVSOqMLNtVMzyQw5PgW49/G5uABA/eEjhjcjwRY9fhduabTHi2aPPP+Qff86VDpvGii45PI0kebbwFO/iCWTIZpd+hRuZ0ycnPrECG84JOdeebouBXnOjdTHt3DcHa9eAXESeTzEgMVrPjdkasVM+6UC6fEWdWefWObEnT3YioFMeKDvlQC4boTNFZMRkTB/fvPiSE791Z6yRu4m59tprN69XZ8QfmUYw73p0QzPH1/V0k+Dj+m5c2aY37Gya5ZD1fx+cjDVsv35OjLh8JP7QNddc82s33HDDb+zdu/fQiOvZ8brffCw+XtMnf949+M+N99kz4/24Id9Gb45Pb1t288W2kZsn801TH+e1+Rvr4hpnsxr5wkmsZn4Ko6LZm34UBb+feuiRRx65chSu60ZBOEMRgwppNDcPhdF+hV4xI1PRVWCtuwGwRnQUWaQhKKLIHt30FEl+yJBlp/2K/VxE+TSvEKPsGpMrF42ITrbx+COvyGcD8Vce5Q1kawbk5pgB31kiZ0QWkSHfujMAtvmxpiMWDQT4Fie4wSLHF3udmZHfOWZ8clG52msfmTsXe9ZiZEue5ZwcygYesNu1pysHeo3FCEayKKQznzGd5vPoTIrNHLEpfjeJYB+x56bGtbbPZjHKwTnhO9PRPDcx4Dt/P66wpmMc9l4d88MjhmNj34+mfMRz+vbe5nqOa6aR+wj8ntHEv3DllVfepxlrwhq5+Xaj3vxXpM3nNZkx18Cfr/kPe29o4CPGzbfUR34nkBgXFmasZv42gDd+BWAUDnf/jz/wwAPXHz9+/PJR3E4fhWLzR2UUToVPQVQkR6Hp6WSzp1HVbBRT9hTGmtawvSn45PDozQ2oggyKqzm7imPFuQJc4wOjNf3tXDa61vmquCrK9uiwzTebUIHPFzlPYCAe8uLVDOjFq/EUvxjsI+A33+ViryZIR6Pu/NiM2KZrD4HYitV12LNnzxuaNR0kHvbwa9yITPpgP11wfuKiwy6dcjVPxjy98kX5ISP24oHs2KML8xy6Psb5HNhsjQBfjp07yMs33T2Vy8HaCPnCk5szQuzg48lBTnTy69ohMvZHXt4vRw4cOPCF66677vah9/CI+TtD5qyh89qI6cUh8/Q458cvu+yyX3/ve9976xgf1Yy3m/jmb6X79bFou5F7/2ncmyf0IdvT9+bj+OHHR+p9nP7aiBNtvtw24llNfOE3xWrmpzi8+bdpUwiMo4A8Owrca4899tiNTz/99L5ROLYUP4VMIxvFZjMqdApeRVchxOuvwSmSbOIpjuQUdzpsKY4Ko2KsyFZcK5qI3Qrv3ChqIJpghZ9tusXDLxn7fNhjH+gjsfCtKcrLDYdGV2Nlw8fhcqLLLntQzOI0WmfXujNLR9xgzq41GTEicnzYt66ZmLPDLh+dqXzFmj69YiwWMnIbzWEja+7a2XcedMqBTTrtd/NAD2Wza0EeHw+Vl32xiwXRwy+2OZ9yBPPspEeucwNzZI8t15o9o+vl+l1zzTWbP+iSvD32oFjkLj+vU7x8FxObnSOYywvYwxrX7rH3vOc9X9m/f/8Tl1xyyRP79u17cJzdo+OsH9i7d+/d4yn8jhHLb1x99dXfGs366DirzTfONWvNe9yE9dfZNv+D2Yjdx+7f17wH+UKbn6H7WfqmgY+4PIGvBr7w743VzN8GqEBWGBSLUViOjqfSM0dDf88oXu9U4BRWVDFX6CrYCiRS6BRjo7UiCOnSmW30s8cageZDN9Ls+K7AKrZiZJdOsVeg02+uEc9NhF9Uo9W4NCSjNdDPjoI/54fwm4tLTmIwlm/70I1BNjuDziObiD7Ck5/9qFzLV1z805OvGxs+IJuQH/bYNg9ssZFNo3OazxolO8dBhu3GeZ6/bBr5NrfPNpnsGemWV7EXg7E5WXJIzp0ZfdfV9U2GLWfTzRy74io2ubv+qBser4Veb8BW9stl0Guj8T40nsrv8vH30HlhNOejl19++cNXXHHF/YMeGDcUjw/e4Rq0J+3RtPtb6RvyJO4pfMhsPjofsde8+zLc5skbDd8nP0JHCwu/E6xm/jZBxUHBQJ4KRkF6cDTDM5544ol3Dd55o7D4u+6bolaxBGMFkh2Fz1zxTFaBVYyBTPwarYaHsmUkzx95wCNLD+G3R0cj4xOZI/bJzkVbwR/F8+Rc8TYC+bnwd6OBD2yJvTxR54BXbOVntJ8MnryicgKy4qzZscev0Xr2TU9cxegJU772krHPdrHgGaPs8Mk+4OU/vWTxmxuti9dZppe9zo18YDNio+vZOh1xWcuPfjbw7ScD5IqXPa8jN3HOxa9NumG07sYMyNPzaYxrX/zlwxaffJBNx1pMY3x5NOVvjafuezXiGvVozpsvq00N+uTPxnsiR+S2n8RPNvHh9w3Ne8T3hqfvzmBh4XeD1czfRqhoKCLmo7C9vHfv3oPHjh175+HDh68ZBewdo1huKoqiqbApiBXg7SK3KTp4NfNk45njWSui5DUjT1n2sqOw2ovHB7380893zZv91vY07Yq1G4oKNrIWn3l5KPjiQJqBtZF/uuyNInxSp5jE2dgc7BfTLNd54M977YufbzLwZjpissZPX8Mx2uvM8IrXHOjZ52duXuxAo3yznRyw5fxQZ2lkP6LnHGe7xYDMxb4zLjHHNwc28Obcred4kDPTwF0z4JccAvJu3rwejKOxbvLKPjJHxWfOH1vbrzG/ZvYd/2/4lVde+cg4o83fQ/ekPext/g66Zu5p3Z65xt3Pw7f3N0/r49w2H6GP/E/+YZfhbzXvhd9zrGb+NsNUSDbjKHovjAL1xJEjR8577LHHrh1F8h0KXE2k4loRDjUKjazGGFWIyVfkzSuYdMixqaAakb2KM/lk5gbemPwomm9oOjUkowZSIc8v0hA8yfVEB2TdFGQrO+LLbs2MrXIXY/Hhk6dHrhHhNzoHOmzQkUu5Zasz0WzFT6/rQr/88YuV3HzNiske0MEjA/bk3Fp+nRW7GmI5OBPz9oqHPXN6YIyKNz5da/xZhv1ABtjET4cs8OesxL1v377Nn30dTXTzBC7ebsaMvSbYyk7xZ88adV7Of/sG5ekDBw583f8brll70q6Z98S93cw3DX0eNfERn2+ibz5KH/76VbKNz4WF3w+sZv42hcJSgRnF6tmrr77626OIvfr444/vH0/R543CdsagLc1OkavoVcAVVPOaUs1obm7mnsg1HwVUYdUQFFXy5JJlC8gp4tZkxEd/poo7W8mzPTfjeS9b+RNXT+RsuSHwBKcZ0AH2rDVK9kaRPkk1NRCP+I3x2Mj39jlv5kbrZNgWWxSf/fyCGIu7mNuXs1jZ7VzFA/mHbCDID9ibYxPL7B8/W/bK03ze6zUCzd/MNn75vhnYE1vxkcVD7LGlYWvkrocn8K65uHudkXdes7/iwHPN8BE5a+M4wxPD5uM33njj10YDP1ozH6+RzRfZNOxx7pu/yjb8+v3yzZ9dNVoP/76NXhP3JL7xubDw+4nVzN+GUFwqMGPcfOlmFKCXLr/88kdGMTr8zDPPnHX48OG9o5GfOxqDvyS3kTdqBp5cKtJIYTSS2S6Gm8JoJEdPsVVkgaxiS0+z13xQhRoqsuzMjayiC2yQYQeyW1xQo9W8+TJa0+FLw/Zk10frNRLx1kAi+5G1xlFzLI45fvngFR+UIxvdGPBV8+ycrO2JVw5Gvjr34mALz1kjMuSBnLlYjF0P8XRG+HN8ziYf/JvTtybXvjl+yMdOXn5a00t3XofkkdycA5iXqxg6L3Ngo9edeXLOozhmX2K1j8w7N+Og1/bu3Xvftddee6dGPl4bm18z8zH6WD9fEx8xbJ68x9ifZD35M/Hhb/O+2jhbWPiPgNXM36bYLo6ezDdP5wrPaA4vXXrppX4F5+HR+E5/7LHHDgzeO8b+lmKoQNYQQTOpUCquxhrG3ADJbPvYFEx8T1PJAz6qUSB6/KG+4ORGIh12yEfkYdYnu12gN3bS1ajE7KlcjCBGDaLYFHp7bJvPsQU2yNBjC2nSNWXznh6tkyfno+GeKtsTQw0GtUblJzZk3Q2OvGr49JKd5+IHNqEzsp79zjzz1jDHYezc0zVCZ+QapTufG73iCeRcFzryy38+gA852nde0HmQ4z/b5MiwCV278jZ2Y0o2/YHnrrvuuq+Om9uHNG9P457Mfbw+rtfmvxrdbtrzl9lq4OvXyRb+QLCa+dsYFZwKkFGRGoXr+CWXXPLYE088cfnTTz997XgSOZOsZqiYKoIV7qEzF8FNc+pnrYEMYkOhpq/57GwGCuvcuBVYf++drH0jv/mzPxdNdrNnJEunebGLbeR08mN1Bd9cU7Wmj8iJA0/cbIlR82QTysM+fbbI0zUv32Iy2q+BkzPizXEG8nIkL+ZiFENn1c/+xdIZmMfrjJyZvfbZ4J8/Z2lMhp38GNnAQ+nScT7W9NKF8ipfSL91cTinzoqfWZ4MG+ZgjvD5d1NEh298NoLzyuZsl27y4Jo6q2FvuDnx0njt33nTTTd9cTTxZ3ykbtxu5s95Kh+xzv/d6En7aGHhDwqrmb/NoSAZR6HbNHRFylzBevDBB6976KGHPjz4m0dXxU9BVKgjRXFbf9NokMaINHZQqENFWeFTaK0r5GxUrDUWhd4+PvnZNx1UQ+K3wq1Y1yjylQ0gRxdv7969Gx7ZmihdTar/mpWP+QbDqAEgc/JsikEsUJ5GVEyQ7zlWOTtL/qwb+W4/HdQ5tWesmbbH7ywndjIRH8b4xUke+MMHe8nWvMnmo7nYupZgvlOmmMzBmZFLr+sE9mab5U7X2o9HjNm0Lza5kaEH2TTi25dHNyMjNv/f+CvjNfvQu971rl8dDf3J8Rr+Tk/l243dR+ybb6cPn989pIWFtwhWM19Q4E429EEa+qiLr5/x67/+6z/2wAMPfHTwzlIwkYbliUuRVGiRtcbdk6O1seaG6FZwK8TATo3ZvKJr3zxfxppge6DJmrdWpPnQOIz45NkA69mnp9uajFFxx9O0rJGGWlNlv6auadTUUH5RPunVNPOPsoXPd7EioIus2SID5mCNnC3gI/LpGdlnm6+dZ2PdTUw8MO882DFnp3izCa3Jghi63uC6FWtoLT5wHdKZ84BihuSt7dPzxcVeF5DeLBPak7MbMZ9oGPkYdGLIPnHdddd96cCBA/d5Ih9P/Zsvvm2T/7r0hfGafnnEsXkq3xhbWHiLYP0XqAsnMV4Lm/82dRTnM++99973/G//2//2/7nrrrt+Yjz9nKEoKqaadgVSAY1fMYXmCqp9hX67YG5I8e91p8Aq5MbkgM10Z9iv0YJiTA4Vj5sKcbLBD565eJJxo4GnoHfzwaabAzaz78+8Kv5Ajw0N2khHLsCudbZ2nkn52DPaK3d7CMTLdiDn5qGbgnjJiNPcmB02Z15zsC6udIvF2B7ggZhq2PmF4sDPvtycQdfUet5nRx7W9K2TnWF/vtb8kCPfjRUdf6PdtTbvNdU16bzZQWyQcX39N6eu9eD7j1JeHa+Zx9/znvd87qqrrrpHE0d79uw5dumllx4aT+mHzf3MfNh7acThP2BZhXPhLYX1ZL5wEgriNp2477773vuLv/iLf30UzX2jOG8qreKrUNcwzMlXvGsmimjzGpwGi+yRnZtW9rKJFGhUgeabL1DIwZqOUcNV+CvaRkWfvj0FHpGtiZC3NmrqGrcCb+6/wTx06NDGD3/lY06eXbkAG3Ou5vx7wtc4xBH1JBw0arHglZf42HZeflzBXucQOj++2+uc8y9OtswRuYguf+lnoxEfiq2xa9Y+ZMNe+sA3wjN2rWYfvR5g1s2e/MnRBzyx2MeXq5ydPRlr1FmwLU+xO/teJ67LGH20/uJo0g/6H8+uueaau32U3s/J/Sqa3y33VI4/fGy++Db8fO+OZmHhLYL1ZL7wfRgF8/Rf/uVf/rP/6//6v/5/x/xKhbFC6QtHNS2FFhTkinQFGmpO9CrYiqoGppiaZ7d9xRoFNmY79ujxZQ322YwvBjzrfqaKxCVuvuzV7DSH+WYA8Nnx5FdOiF1ybLClYc8xOxtxscMmnRphtvGcnWbjPMkj/Ozat6bDNr/lbs6mERrJI3LOF0E60JkVL/kZ/OPJGejlb64V7cNOGT46h/JC9sqlM4lfPs4dypUd19ZZpuv8zTur/fv3n7zO6QLb9JyDm7SuL972U7k/xfqtG2+88cv+5rqGPW4gTzbyffv2HfFE7mN2/BHLSyOf9RH7wlsSq5kvfB/Ga2LrM5/5zJ8bzfz/NwrjFQpmzdDTsgJbIwJ8UJDN7VeMgW7NsWKsoNpnuyKP5oJvpMcusGtNz55GQT67qL18pGsv0JtlxcwuHnmN1M9iRyHf8Ngvh2Kiw0651ijAnkYD3WSUbz6R2H0Bj7zzrMF3vuyTZ8uc35oeym9nZh/I5E/sRvIhXfL2Z3T98gWzPzC2bi/Z+Wagc/KaMaaDb/RJBZgXIz02Zh/z2cq1uTNht2ZunS4Zoy8x8qOhb38ycmKMrw07xy677LI7RiP/0mjeT4/zflHD9lH69hP5MdQX38aZbD5eH7F/705zYeEthNXMF74P4zWx9YUvfOEn/sk/+Sf/+yiI1ynuFcoKs2ajgCq4NRogS0ZR1lDsgcLqtbazGbGl8Cq0Fem5wbAbn23QIPMLbNQg+DAiMoq4sU8DzMnOusnil1efQNgXT7E7gxrtnDMZcSL89jSi4soOnidDOT/xxBMbe+Pp7+TvnVvnmx9jOYqBDWAvP3zkHyUD/MkP6LdPv7zNQX58Qb46n9bZwGvEoyd+sRerufO05/XAFp6x65E9RC//9sy7IYqXTzGz5YbI9SKbLtvy9nfcjc56kL+57i+0PayR+69Lx7kfHzZe0rA1ck/hmjmy3tnIh89VMBfekljNfOH7MF4TW3fdddcH/5f/5X/535988skPjyJ2uiKtKBsV/FBDUUQV1pqcJ+7WvcYUcFCIazD0zFEFm/3sQs2kQp4u0OfLSL7ml48Kf3qts00e5ZPu/IRcQ6JTw7IuZzbJmoNc59jz69w0a2s/m+/mBT366KObJ0gyYhmNZqMLYnHu7JHlh785/mzxW7Mtvjn35Ozjd66dGZ2ukTmiZyRjpKsp1yzZxOPXddBU+9EBW3IK2QHy+W8Umzm5eHJqr7V9a77FjZxRnxSlK8Zu/J5//vnXh45vpH/72muvvX3fvn1PjPnmz7LubOSexq3tj2u9GvnCrsD6AtzCm8FffDvxwAMPvOfgwYPvH0Vs1OnvNsyKumKsSJobFVCwJoM0yNbmremCwqwoW+NrkhpVvmqwO23aS7Yin3+2EBnFnTx7dNlhLx7SLJGmU1POfnr4xjlua/t8gz0x4GczG2g0jI0PtvNr7e+L+5hYY3rsscdOG+e9aUCe3PODzBF9I79GjVRTrYGT7YyMeEB+buLipR+cIztGRBaxwybQwdPMyRqzV+5y5reY2wPrrkFz9o3sQnHnk/3O1ohPvljs9xoSj7Mzou2bl9fH+OLQu//AgQO3+Pn4aORPjeux+Y9SNO7RwJ8eT/c+Vj/5v6JtN3JfeFuNfGFXYDXzhTfD1ih+r40nm3Pvvvvuj45x7yhqm09xKsSKq2LaHBTaufgrtNagAJNTePHpkUtHAUcVdxTMK/D2a+Sa4iwrPvYVcSAH+ck+omtfHDVcMtkyWpPRdO0DeWCrPfPkNelis5ZzOvLWZMRJx54bjg9/+MOnXXHFFZunSx8Zj4Zy8tv0ciGXbf7Y0bQ01M6UTXntvCGB/BvJNWfTyEYN0DUlE7ED5uTs10TxZnlnQL7zYJuceWtyEA/NNq3FlW1Ix5gNsqjYm/f6GronBv+VwTsyGvc3rrrqqi9ceeWV943z9l+X+uLb8+NJ/A2N3Hpcg+fGOZ/8k60jntXIF3YFVjNfeDOM+rXlafKZw4cP73n44Yc9nZ+Lp2AakcJpDTXHGphCbJ9chVljQvHJKvxAZ7sIn7SpsOcP8kvPnrknXr6TYaPibw7kNRlyNZt888cW1CT4bC4ncvlubmSrp3Y8a/JGNjSZ1qj8+Cs3jftDH/rQaeOpcfOEfu2115520003beT9LjQ4L78u18+OnSHbYM5u/oO1uOTBl3gb8ZE1nXI1dkaIDbyuhzmUv9zkA+2x2XnM/szJdgZAJh4fxTDz6VkXg5GMfWcB5nhkt9evj/Pxs+5vXnrppbeNRv4b42n8yZq4hj3OffNrZxq5uadxjX408hfHGdTIN/93wcbowsJbHKuZL3wfFM9RHLdGMXzJH9F47LHHrnzyySdvHMXzrFEoN/+LmuJp1FTIV7TjKbDQ0yN5xVkBtk7er3bhoXRqAhoLGfMKOjtgTgdf48k3WQ3eyJ599moo1sU7+wC27RWrPNhkp9hqzvm1TzZfbOF3Pp6m+UDZLR77bgbGE+PmidtTOvt+Hc7cR+2IjmburMTkZ8HW9vh1DmwXJ3koV774l29n0D7/8chYi6HzYje94i7H8s9emH2wad55dJ2t8cVqjMAeAjqN8VG54nuN4Y24Toy1j9QfHDdGt1x//fVfGM380XGWm/8gRRP3sbomHvk5Of7Y3/x8fMTr766v/7p0YddhNfOF3ww+VvfD8pdHoTv6zW9+8z2PPPLIleNJ8HQNRVE2KqQVVTyNxtOitWKo4Si0FUb8gEd2uxBvSPGvYWoimkvNJJvk6FhrBq2b0wGxiSk5c8QWGQ2TP/bpNdqXUzcldM3xxWXkz0jfHBrZyF7xkgN2amDk3Xj4wltNVMOmp7mT0bTxxWHP07kzkwc74jHKMYLy2EmdE7CfH3v8ikOs1vh8W3dOeJA8f/lqL3RG/OVXHvFhjgXssWlE5O3Fm+XaRzBsvjzO884DBw78qo/UPYV70jb2s/HRwDdP4tuN3H9punkaH3lv/ub6yGXzJ403BhcWdhFWM1/4LTGKqG+yP3fw4ME9X/va135gNOdzR0PaqpFrLOaRdc0Gae6KraKdfE0WKcgKu4ZQU2iOaiIVb81Lw0E1lxr/DMWfTyObRv5qJnTYp2/fWuNC2bWPXzNJlj6YJ4+KmVzrbIvXvLMxR57CfcRebP3nLn5+rskbr7nmmo2+Rq658z8a0Ru+9S5XxHe5hRqe68N2uThbcq3FPDdtxC9e5wD8i926eev22ezMjZ1Zdq2j9rteYCyfkC6k67VEbvh/ZTTt+6+77rrPjafxxz1po3F+m2+pbz+Jbxr59tP45ml95Ld5Gh85r4/VF3Y1VjNfeFPsLKJPPPHE/i9+8Ys/OhrKRWO9+ahdEa2YIjDOTZ0uWXKeLD2pzx+t26vZmyvQdGqMc9Owr7F4mtVkNBiNp4ZKFsiZ+4h7btBs5AuZ54PduXGRn+fFRZZ9sMcOHplsFTt5Z4FHlj+/lib/bPCpoTsfMmQ1bf40cp8evOtd7zptNKlN3vahMxIjW1NT2/CBP3bwnbVY4tFzLtbFkm5nifjJlzG0Tz8ZlD8j4tdINrvWfJLDA2tkP1/Wxp2+00fjNab5vjSevB8Y5/TLPlbffhqf/yTrMT8b18T9bNyT+pDxJbeexmvk33WwsLALsZr5wm+LUXTP+Na3vvUD3/jGN/7TUXzPH41j08xrdoor1NAqihVjjaYncgUcjJqLEWkKPTla00Ns2AP+ECj6fCNIRwzFRI9chIeai8ecLh3Nkv2d/qzlJQefNJA3Fy9ouD6uHo1i418O7LENdNjxB0w0al9sO3LkyIavmdNns1jE5tvtfMh/NKTNX6MrPnF3U+RJ3jw95CaGTc2aLJ9dGzaN7NDvDDoXcTvHciaH3/VAQB7IyBcBWTE7G7a7gbBvjeynny8j3+zJBeGVU/pG+sZh23+S8tJo0vdcc801X7jkkkse3m7km2+qa+JzIx83R5ufjfc0Pnytp/GFUwarmS/8pqhwjyJ6zi233PJn7r333j86lpvfd1J4NbD56Vdj0jTMNQF7ULOYi3MFXqNR8GtG8Y0V/vaaA1vFpwHwYaypisW+OMUEbJjbK8YaB5/FY2SLHB02yIspqtFqmp0B3/nD4x9f4+ZD89TQ/T65BizmG264YROHj8/Zq3mCc8mmPXzrYmGTvRo1eT7EDHLxdN8+G2TMyZjLFR/hidm8cwbybCBoXwx45nRnfXPxdl1mJIuylbzRGp+tGjhfxvZHnkPk9WfHtf7m9ddf/6vjidzfVvffltbIN99UN1pr8ON6vjjObvNN9RHT5mfjfCwsnApYzXzht8WhQ4cu//SnP/3fPfPMM+8ZRfCMGrUnRc1F0zM213xqmFBRjyrIqIaNKtjGKBmNZx5nWfayKTbNnG+8UdA3sYopqrlBumxp0HMzr7HSUfR7kgV8jZyv5MpNLsCOeHsyp//UU09tPmr30bqPzjVbPj1hG7sxEAtb1vie5vnmczSnjd6+ffs2v84mR2dPvm+5d0Z4IH7nA/hiEYcYxWuc93eeK2TLuj1nGd+Z8YM6D2cXnx5f5HeO9s1R9vGcg7V4xDjoxIj9lXGe9x04cODz42boyyP/p0b+L0xP5Ccb+bg+m/+HXCMfsZz8gtuwvZ7GF04prGa+8FtCQX3yySevvvXWW//rUVgPjILoV9Y2zbonNXONXeOpmdcwjZE1UuQbIwW75qdwQ0U8Utg1RiM5xK4GYF8D4Ft8mqe5pjffZBRHfvHbq5Gw1VxM1vz6Qy547MlXI+WLzZonolNO+WL/8OHDmydp5+RLbW4E5JAPDZY9zRqfDl37GnSNDU8MvgDnhkDeGr49oyZtzK4Y5NOZJcMfXSBHpqaL7CFztiIQg7zJo/JsjZIBdvD4yKd5yE9nWAzitUeW7xH7q8Pmve9617s+N5r5/ePmZvNHXozbjXzz0bpvro9rv/lLbuP6+pOs62l84ZTGauYLvy2eeOKJ62655Za/MgrpJaPBbGkkmqViq8ia1+DnuVFDQoq9wq7AW5sbydiDCvlMFXTNsmaUX2SuOZFlW+GviZkj9mvY+bfuyVrzNOLZZ5M/za6bB3N+yGjkbNLBJ6vZiq2Gp2FkR+P0UXuNfDSbjU864sTrCZ2en5GLgy/6fDkn5NzYRWQQPb6dPTtsA390y0ke7HUzhO8M+XRORvLm2YfWZAFfHGST6xoj6Oy75mwj89b2zbMvNnHNYzcwzmnM/W9nj4xG/vnRyB/SxMdr0e+P+5/ONr925mncl962G/nmS24jpvWX3BZOeaxmvvBbYhTPrUOHDl02nsz/3Gg++0fD2NIEFWNFFmrMCnNNR8M34lX4k0M7bwAichV6zUMRr7BrkjWVGoBGZs+aL7wacI113mMP8q8ha4A1aL7Zp18zz5+4fbQtD37ZAHr5oM8niMvTfE/V6UO+kOZ96aWXbvJEYhIP+Ro8eU3f2fMPRvbJ1cT9ARp/RU4s/TnYnefTjU5niV/sxsAnH3jmKFn62SCDyikZ6JpmY5ZD2Sh31DUXe9d3rIfoiWM33HDDLSO/e7Yb+QvbT+Obb6yjsX7aU/p2I395+FqNfOFtgdXMF347bI2Cet5tt932Rw8fPnzdKJJnaCqKc41Swa5Im2vQFWyokGs6GujcxM3ZszZGbgbw6CJ+NB6Fv+Kv0dqr2SKNIBKfZmDUmD0h97Np+jU5+xqHpovwa+R8gVzEq9GSt6eBjgayGcspe+SLwcfxmrMzIicOcB5Irvblwa6GrcFbsyEGdtgm33mY++g+W+Jji37nIhf5soPHDp61nMkAe9A1s3bN0E7QERMb5MvDPEpXTG/GR+LpfMXlmrQ2itPI39h7fTTqe2688cavjmuw+Tn4GJ/VyP18HNXIx+vn5Bfdho/18/GFtwVWM1/47eB/UHvtoYceetcDDzzw0dGwztEwoKKuSdVMNCuFumKsgCvaeGTsk4vsp99+DV1T4is50GQ0EYVfM6oJaIIatSZsH19jtqeZmdv3BTF6+OLTWFH/sYmPpsmyQ5ZfPskaxZe+p+lgH9FB2XcOfrZt5KfzcQMwNzU5Ok9+5exLbXKwB3KynwwfcubHWkxkxYucnT9GA/YRe86ALIiJXXpyQ82Da9J1RmwY8ch1XY2dVXO2zGeUb3Fmi12jPWSOnJdx6D03GvmXrrjiigfHjY8/BvNcT+TbjfzkN9bHWXoi3zyNo23XCwunNFYzX/jtoJn7byTP/MY3vvHR0RT2jwK5pQFrQBqlgmutOOMpxlATRp5ojQq/RjMXao3bnsZSY6+oIzwynl41Ok/A5NvXNMVRczKvwdXwkLk98uYatwbu6dbPtM013Jqd+AO9mqt45CB+I52aGD81LD7ETFee8hKfUT6jAW30kxczHWflyVw+fGnc5uTEZt6nFnTYM/IjZjGY///bO5cYO647P/P9FCmp2XyJUkTLpGQZij2I7EGQZJNkBkgQwItsvQuQzGIWA8wmQDYBAnvjbBx4Myt7E8ERjBg2BpNBBl7EgKM4kmjLomSN+H402WST3XyTLZLqzu87vv/rcpsjUXRL0TG/DzioqlPnVdVkffU/t25dZg2on7EtzszM3I3Ir6b+fPavyjhW53ja8w+0xbFwTjkO6tSxc8zk1zpt0z99Mx7ySBwXdckH1knUrb8L27WvoA3+HuSxzpJzBaN1hHz9iSee+Nlzzz33KsImIW9ETmI95xGR+xIYeWhR5vJh5JrYXus5f/r06aeTXoiIcs38VTTGEhmwXhd4YB1BVB5luDizTR0u7qzTNtsw6uc32kOGiA+5kNjHkrZJiIc8ylRd2qOvEghLJFkJISIlJIQEkQmpytMGkqvEGBgPkqEOckWWSKqOiX20yXa1XeeCPOD4KMuYGSPHwT7apw6/Zc6NQbXF2Ej0V+OjT6Ae64yDxDbtAueCdb7OlrqLuWmZT/2T27Zt+7+R35EUuZXtR3OcnPiVjIWxMr4aI9Af1HGThv0P95PII1UecL5rH9B+lWO92q5zSZukUX4T+fbt2w8+++yzP420L+XvcWs0vT5+ah2R59/C+EdSUufXdwsiDwnKXD6Q0cV3VS74d7JcePPNN/9xLrQTJUzEhzgoh5wqHyEgWy7KrJcs2E8ijyV5JSHWS8qUJ9V6CZBUMmcf20xZk4hyiWiJeBEk+1ivvkmsMybkUWKq8dEHbTDFzYNqkUVrl0iZcVEf8dQ0PIJlnbFwzGzTFjKiHPlAf7RfNyZQ46kxMUvAd9Bpjyl/psOpx2wBbdUNAuXJR+CIkr6oS17lcwPC+uHDh1ecPXv2VqR+POfq/+zcufPdiPHMjh07TqadO6n7WNrdlP6ZfWnng3ocC+u0DXU8JPZTliVlGM+wfJUjcT4YN/tJ1KEMZSuPVGVoi32j/Yj8Zsb7xv79+3+av8dMzl375TMEnr8NT63XZ+S3FLk87PDLWKNVkXuTizDTsmsimYlvf/vb//7AgQP/JhfQLZHfSkRXF3gkgmC5kHNBZpuLd8kSECYyLtiHdOvCX6IuShrV5hD2kWizytFWyQzZsY0ga+ocqi/GRl3GRmKdutwQcFyMhXK0RX3aIUpmSp5lSYtXr3ITgIyQNX0O2wb2T05Otu26EaA8x8o67RFJM+XPfj6P5+1wlOcFM4yL8rTDOaNfYD83AcD/ZWSesS9m+X5uvK6krYO5iXgzEjyXvw0PhhHB8h7alSdPnnwuwv/j3Aw8n3GvybjbxyeMn76A9YL26Y9UQqc8sD6ktvmbsM6SxHkB6gP7+DtVuYw7iwWeRD+X437rM5/5zBsZ//i75PnbXI7YZ0msk8dxZUztqfXWqMhDiJG53C/ts/NcOK8dOnTohUjuiQhiVYmXi3+JmItySbAu/qwjA1KtcwFHfqSSA0vKIxEExpJUYmSdfthHQm5Ez9xE0DdtEQGzTVnyaJP6ROlE2yTWicBpg23WSYicfbRDHcbJsZDYpm36pG3GjzxJyBVRUY6+uRkgj76hxkwb5FOOttlPFF5CR8yU4QaB8vTHLAFL8kmca+rVMVYeKeeQz8dvHj9+/FTGdSDn5ucZy4XUb29IyzavQG0/QJI+Tmf7TKL/rblZeSznd13aHE+70wdt0n5tL01DOdcY6u8MHBPHys1QlaVMnS/ykXmOfzHrOaXvX9yxY8eB3Mi8umfPnsPIOueB17RWRN5++Yxj4Hgy3voeuZ+Ry0ONMpcPpS6SuUCvjOQS7N1Yf/bs2Rdykd2SC392//qpZBJiIpGHGEiUQWgloBIbsiUPWVCXcqzXjQGpJEa9YX4Jl/q0x5I8llWO/VBtUo6EHEv8yJuEpGssULIZPgHOPuoxFvYjLY615ISYamxs1zlBdoyF8uRzbkqGtE0bTJdzY8Db4fiuOGWoQ5+UY2aARB91E0Fd+k5+e81pIvvL+dv8PHVfzTEdjvQu53iJaus3vdtLVbLvKmnnzp3TEeRUhLuYNiZziBvTJz+ks7LGyN+EJXAswHGwn3GxTmIf4ibVvwHGyD6OgXPLuaEt8kZlF3M8/GDK9fwtjicSf2Xfvn2/yA0MNyDtYTduQDLW8UthWOd40t58xtpe0ZoxOsUoDzVOs8t9kX8nK3PBXZMLNCJ/8uWXX/7zd95556u50G4qKXFxLxHy7wrhIUskSZmUbRdzQKhc6MlnnbpIqsRX8i8ZD2E/+ZSpfkhD2EcZ2kMq1Tb9U5b+yEe6jJk2kWJFzRwPS+ox7U3dOjbaoP7oAbNWpuTFeOoGoaRPqhuI6pt+aJP6CLqkzLmK0Nq5Yl+Nl0T5KkdfCDzjvpv1axnrmeyfSrmT6etMRMfnyLcRHkJMu9eROWJknX2pu5C21ubvsDE3AdvffPPNf/jLX/7yn+emYn/am8g4U33DKs5lUruj4xzUeeU4OE+cO/I59vp3QIL6O9TNFTD2nLOFLO+m3LXkT+3evfsgn+VnfFdr3Dl/t0rmjL0SeeyvYyC1hkUeYozM5b4YXdDbei7OdyONawcOHPiDXPh35MKO6McSJHGxpzwSyoW3rZc42Q9IkvzKoz71SAirpFViKGmwrPHQPkvygHaoV9JBICVElkiV8QDlkCf76JP+K+JF0CzJQ1LUpc2SKeVrHUmXyBgLx0UqidU5YJ39lKs+qh2Ok6n1F198sS05HtrlnNU6bXAuKM+NxPT09O2c/2MZw2s5rtdzLEeSWkSb7fZd7FE0foXvYhPVsk4++9Peezmu2xnf3azPJxo+Nzk5eSx9TqXPizn299P2Qsa5ihuO+vtwrFlfyfi54WDsnIeSOPs5Ts4X5etvln3MHtxNmk+ZuYzj0M6dO3+Wm5fXd+3adQppDwXOWGtavWYTsq9+wlSRiwwwMpf7Jv9WmHpdnYv3+itXrjz60ksv/bsf/ehHfx5pbUE0SKvExRJYIkwiVURa0kRoUP/+kAEJ4VEeASAGygMyII/2KIMoyat+2C5p0HbVHcqaPMogSASEiBgroloqJZbVDvWRedUB2qFM1UFsSJbyiIzjYh8vbqE+guZNcEieNkj1m+YRVovGeeCNz+0ZH23yNTXKsZ9zR3sjia84duzYYqLpEzmv/yvtnshxtPeQZ9ki2pIiKefgOol18hFhztfdjHMx4+X75i06z9g2p78t/G3Tz+Nnz559KmN84sKFC3vS19/L/omMYXP+fhtSb22Wa3O+12Rsa9IvEfwq/o1w/Pw9aD+najHnaiH5vI/1evLPZiynkmYi6AupS2Te5MyS8XGjUWOucZPHsdXYkTip/TFERJnLRyNSbE+2c/F/++23v/Cd73znP+dC/2IuujwNPRYuUkWgiAkRkdhHHqIi8W8PYVKedaJVlpRFsuRTfimIYthX5ZEQPXVKsoyDtthHPtvUYT8SB9YrymY/MmIclKcusE155Eu/lKt6lKvyyHzYXkTUjgeps+RrZ0i82nz++edbPk+v1wN5dUz0RXvk0Sef3Z8/f37FiRMnVhw6dOh2jvWvn3zyyZ/lHN9cKu9aT92bJPaXNEuGyDZjXoXQI+Z1Gff69LkJqedYH2FJyrFsYDvLjZQhUT5/u3W54Xg8+x7P9iNpZ+NI8Igdid/JsdxNv4xlNulizueNjIFfMePXz5jh4edMx9PqjLXGTiKPfYydsmnTd62L3ANlLh+J/Hvh4ahVXMwTsW3/3ve+92evvvrqv02E+Eguzu37ysgIsaVMkysyysX4N6SH8NjPkn3ICnEh0lzAx9E3S2AfCShDH5UoRx4s/feMUEvm3DhArdN3ZDWWMHmMJTIcC7XGRZTMA2pVhuPk5gPqxqTWkTBtU4b6lI+Y2j5kDsid17x+/vOfb33RZx1r9c35YWx17ojKz5w5s+Lo0aMr3n333UtPPfXUS4nKTyNApqXzN7hCYh0Rkj8UIWmpDPl7knKMLULn74q8uVlD7CxJ5CFxypByHtZQh7R0vdqkD5bV53DJWJA4qUReMieVxNlP2fzNxjcgNXYR+TXKXD4yXKC5aHORf+WVV/7o+9///n9M9gu5+LaHpZBRLuzjqBWZkjf8t4bsSnrsQ1hIH6mxBOTH+lC2tEF52iQBdYH2KtqmHjcFtI9QgTZguE0dpFt90GZ9JAAIlD5ZImKObzg+6tIG9VmnP6bGaQs5M7bKr754Wp2IvN6dzjiRfd1kUIbEzQLnkOOlfSJzptgPHz68cPr06SPPPvvsf9u6desl5J2ofo7EZ8tsZ4w3kTgyRIQl0r9Lhml/FSnjHks9Y25ReCXySEtlXvWGS/6NsBw1z3njYb0FxkLKMTWZM8ac8/lhqnFTpiReYx81JyJLUObyQHCh5qI+Ozu7/Qc/+MGfHDhw4E9zAX4cGZZ8kBcyQp7IiTyWbOei3wRH9In0EFok1FLJkjK0xRLJsQQESRn6GpapafASbuXTL1TfLIF8hIxEqQOMhXZL+ExrAyIlOmec7C8QN9KtmwzaoyzjLUlzjJWHyL/4xS+uSFTdygNjpRxQtuBYSIyFsdLG1NTU4qFDh27euHHjx/v37/8xU+o8JLZ9+/YLk5OTF5E5eUgx7f9GJP5hMiwBk3LeWpRN4u9cqbbZX2lYZ7ikvVHT95Q5qcRd8q7EuGvsVb81JCL3RJnLA8GFmos20Xkixc9/97vf/U8R3z+NSNYisVzMm6yZxi4Q5r2EipwRJEv25WLeRMiSOumnSZIl2+RTlmXBfhLtVj7b1QbCRtQk+qz2kGe1RRlAurWfiJw2ETnbPIzGGNlPPT7/5hg5VvJrrNSpGwra4GUwHNMXvvCFFS+88EKbgaAf3u7GmGhreL4YIzcnFZnTLn2dOHFi4ciRI9OR9l8msj/E0+pIfMeOHTMl8/R7EzkiQyRIao3eJyX1+huT2K712v6wdC+Zk5A5Y8txtci7tmtJmRr3Rx27yMOKMpcHhgt2xLWWJ6B/8pOf/Isf/vCH/yFCejYy4WLfhISMAFkRfSIm/s3lIj0WKBJkHaiDCNmuFHk08QHlqUsblOUmgPKsU67qAlJlypzy9I9MAWmSgDpQfVEHibKfthg/fRMV0wafcwPSpW/yiZ5L4FBjpT1uFi5evNjKPfnkkyu+9KUvtSfbOWbaq1e8cly0Ux8TMK66gWB/tZOonBfDvJG2/ibR+LmKyjOu87ziFLkTlSPGjOd3etobGQ9TzvF4+ny4HKaleaOmmswrlbBJw3X21ZhZbxVF5L7we+byO8OFd2Ji4nwu5LdOnz797OXLlx+LDFciICSXi3qLRHlaO7JpciIhs0SSY/kiNPLYhxCZvk7bbb1ETVvpp0mW/VWPOvRFXomVdomO2c86bTEmpDkUbrVPol2mzmmDNumLdeRNBM2rVRkD5diPcOmLjwfYx5Jt9iNm9rPkuD73uc+1z8q5CWAsnAv6BPphbCRgTDXFTlluLkYR/pWM+fXcBJzkIbf0195XPnrwjen19rBbxoA4W1sPCvWTEGxJuARMdE0kTXQ9nDYfT5+TmB0YpPH2sCxt0GalUZ+jEYjI/aLM5YEZXHR5in0xwp6NuFbzAx6R2aZIkOisiRyZIVWWJWQi5dRrciNqZ0kZBAaUGS4rHyKF1i7lGQdtDhMypB7tI2K2ESWSZQxMl9M/eXz/G5AlRDKtDdqlPjcIjI06Q9HUjQNLxs9Y6AeB12ft3BiQTwS+f//+1g43NeQBMqcN2iWPtnhqnnoInLGyj3FOT08vzs7OHs84fhZxX0bmSByZ58aAJ9jbQ28j6S5rZMsYRqnJnTRYLxk34Sc10df6aLtNoVce5as+S9oWkQdHmcuyQdQV0Zydm5vblAh9fy7Q63OxHv9wB7JCZslrEmObfC7kyAp5saxolXzKUL7Ksax9JKROmdoGRFxtl8gRO+2W4NnHEqFTvqbKofqn7ZqaZx2xVsRMtF2iBo6LNtmPkJlW51hqmp99zEKwJJFHXfrmBoM6FcmzzhhInDvGTP7Zs2ffyxhf27Zt29FRVN7ekjaKynl7WnvoLcfVItyPmzrng1RiHop+KOxK4zoisjyMvzoi8iBwcUYeSCRCm9+zZ8/UV77yle98+ctf/m52X2Q/kkTUSAsRso7EyGeJABEX26yTB0iP/JJx+ml5SJUl0F61STmgXMmbfKh+2FcgaKbh6ZfyiBvBUg+qHYRKn2zXOMlHRqyzj8Q4iMj5bJuyTKMT9bOsh+FKztV+jZG6nB+gLDcBzAQANwUR/fuR/FTy3sl5bi+AyXjbd7M579xI5Zw80ANvItI/RuayLIwk0gQX0cwnYjwXAa29dOnSZyLSDZFkC8MQKnJCaCXLkhsiJY8ySLIEjfCQMftIUHIuqZJP/ZI8ebWvomu22U/Zyi+Zsl0ir/GRagzUYxvpsk356gORMx6mx/kuOm0gYz5DpywRNzcOPLnOFDttkV83L/RBffJrNqA+66dMJL44PT19I33/LDI/kn3tdadE5NluU+zJQ/Al9Ha8IvLwoMzld6bkkWWLCiPLRYTD28kisjUzMzNPJ29DotL2UBwCKxAZ8ivBIkfKIE2mm0t4lCGVxKlHKsmSR6I85Wob0RINk1d9VRnq0hfr9E95omOW9EM+bTMu9lMfMbMkn/2Il3aoR15F+yxpm7JMkbPNK1uZaqe9Gmsdb8F2LetcXbhwYeHs2bOnciwHIu6LfDYekV9F5AgdsSc658G39r512heRhwtlLssCAhmksdD37NlzONK7mqh1V+T1aOS0GlGWPJEW2yTWESQSI5FXn3mThnItKIMUS3xQES4SR6z0RTnqU4Z18kjUpb0SNVKufkhEx5WoSznqUYdyFUlz08Dn5uyrKXM+Ny/RMw5EzkN7NU6WlK9zUH1SB6jH5/KnTp26lBubnyaqH0flfFaeNHzwjah82R98E5E+UOaybJTIK0UsC5Hd7cnJybOR4ez09PSuCPPxrK/OvpWIGpkhNcRYQqt1pFayJZX0kDQSRbDUpxzrCBNZbtmypT1dXtPrJXASbVOH+mzTPkukiczZV/kw7IN8oP/aRrhs0wd1EkW3xH4EX2Pju+UVmdfxUZ4x13FRjvIk9jGmM2fOLMzMzBzLcR2oJ9gj8BaVI/TkjaPyjPMTefBNRD59KHNZVkomI7GMhb5t27bpyPV8IvTNEd9E5LWBCDbLNvWO4KBkDrSFnIl4ER37yCvpDfMQKuWQNNtE0PVUOP2wJJHHfupTBomSjzgRcsmVcuyjbCW2KVPblKFtbkr4ARQkzufmlCl5c0PB19L4jjk/cfrEE0+0cSN62mPcw+MlsU1Uf+7cOb5Xfjvbr0XeR4nK6wn20WflV8lD5jkevu5lVC7ykKLMZdmJkJpUhkKPwO5G6Of37NnzdnbNhq2RKYlpd94c1iTIEsFVlI0MkR8gOiSMsCmTdtuyxM5+bgyQ7FDUtEl+5ZHIow4y5jNtytEOETFlKUP7LMmjHO1Sj3aQLd9LP336dHuCHYlTHnHz4Bs3FhwD288991ybLSCK5xjpp/pjm/5YpwyJuuRlXAsR+lSk/ePkXxlF5deWROV8Hc2oXOQhR5nLx8JSoUdW7WUhkfOtyG4qop5KRLsYKW6JJDemXHb/6vvXSJE0FCoSBQRc4i5JVxlkiXhZR5Zsl4wphzjZpi6JbRLr1QflqizbtMN2tYPEp6am+M53kzlleHIdaTOFXtP73HAgc34Zjf2MufqmDjcEtE0ZqBsU+qUfbg4S7d/KOfr5xMTEISLwnLP2treKypF7InyjchFR5vLxEXGNn24nIZ0kpt3vRHBzO3fuPB4pTV2/fn1thL4lcluf/bxNjt/AbuIjSmU5pIRYci0BEj0jydqPzEnkEVWTECj7qVNT5OSVrEms0z+JcpRJlLyIYBMp8xY27iwWI9aFp556aiHHgEjbMwApv5IZBSTOu9gRPFPqdQzVN30ib8bAGMnnpoEbBD67v3jx4sLJkycv5PiZYj+PzOsJ9kFU7mflItJQ5vKxgmSS2lR7pUSp7Z3eRJY7duw4s3fv3reyfioivRORbchifWScoqtWErEi5kq0l/xR67968QpRL/uQMLBeETbSZBtJI9GSNPmIFHEO65DPfmA99Rbn5ubej8BvpOx0xn08Ij3OjUgi5hPp/0TKTOem4nb2b4rI10S6K4nQ6wE42uVGom4g6LMicz5nR+bAzQAyZxmZ387Nw9vbt28/mLauE5WXzFkid2Se9o3KRcRfTZNPhvw7a7+oFYGtjvzWRmbrI7ZNEdfmyO2RRL5bZ2Zmdh4+fPiFo0ePvhipPZ86OyOv9RHoSqauiWRJCB6JI2CWiBFZ82+5hMk2ECUD25SnPpJFpAiW7boZIK/apJ20u5C862n3dPo8GnmfShQ+l/X2cpaRSCmzOsLfc/r06T+anJz83K5du1Zl3O0NbhFv65s2ETtjLXkzDj6vZwwcH+POTUNbTk1NzWYs/zOR/5tMrafvOX7mlMQ6cq8pdm6WWoMi8tCizOUTA6GTkF9kuSYR67qh1ElIPdHqjojxmbfffvsPE53+g8h2MhJdh5gj0vaudyJ0/u0iSOQHTMkjTWSJjEuSCJoE7IcSN/WRLdEzy9RbjOQX0+Z89s9FyAcj0HeQOJ/3p83xr4JlXOPf3075zW+99da/yrj+5e7du9fxNHtE3PqiXW5AkDcyp686BsZKPuPlNbC5oWG5eObMmbfSxv9IZD6dG4IrWV5A5CzZJjJnDPTdOhGRhxplLp84CD2iHEfpSD1S2xCJbhyK/cqVK4+eOnVqXyL1P4zkX0jV3ZHnpkh7TVL7XB2BI2bkyMNkbBdE3PU5ORJHniVuoA4CpUwku5j8heznd1XPRNxHdu7ceTgS53Pr9u5zImHWSayX0BEqNydvvPHGH584ceJPUu+RpPY1NPqgT6bdubFA5txEIHCWjJEyfPbP19sYz/Hjx/lBlb965plnXkPcuaG4VFH5tm3bZrds2XKNMXAjYVQuIuBn5vKJg1RJkWA95T7+HD3S5Hev70R2tyO/+YhsdteuXcciVT6fvpjqN3MzsDb71iStIlJP2XG0Pmq3CZyol4fWiNwRNhLn82ren84y7fBQ22LWb0eyV1MPib8ZEb+6Z8+ev41I5yLhm6MnydvLWpAr0948hMY6eciVae8I+fEjR478k+RtYoodgXPDwQ0z42MdmbPNGJE8eQidz8qJyjOWxQsXLlxN+/87bVysB9/oj5Q2eYL9NucrbRiVi0jDyFz+v5J/fy1KJxHdkojUI731w2idz9WvXbu2ZXZ2dkei12cizmdTZl+a2BW5PRK5rUvd1WmnPdZdETgiR/BF8lsEnrJ8qM78/MXcEJyLOE9GyLz3/FKE3n4XnGicCBihIlES66TaHxm36JjjOHjw4Jdfeumlv9i+fftupth5oj3rTdaMA5GnXptS5/8dsq/Inf1E5YcPH15IZH5k3759L09MTFwgKmdqPTcY5ycnJy9y85Dx3Uqb7T3s7aBE5KFHmcungntJPZJrD8oNpV6JafjI/bFE1jsj+L3ZvyOSfjR1NiUqX5f1tam3Nu2sivj4ihzSJaK9GQHfiBAvRYzTEepcBHuzxBy5MjPQptSR5lKRk4fgKYdQiY6RKuOOhPd961vfejmR9P69e/eOv2NO9M2NRcqMH8hD7BWVM2vALAJT7Yns3ztz5swrzzzzzN8wA8C0OiJf+uBb9dsaE5GHHmUunyqGUuczdaQeESLn9rn6UOws2WY9y5ZHudRZx40A62mnftilvYUuy7uIOCJty8onsY0oS+Ql86HE2bdU5DXu8+fP7/7a177231P+xch4JQ/BpV57q1vKtuPLjUJbltzJR+IZe/su+7vvvns1Nyp/9dnPfvZ1ovCKypE5cmcsNe7WkIhIUObyqWQodRJyLkETrVfEXolt9o1k3iL7qktbpFHTTLuPv/de0TipInKkTRoKfChx6lB3GBnT/tzc3OTXv/71/5ox/LPIfDUPwCFvfsecCD3jbxH5EPKQOV9Ju3DhwmIi83ObN2/+4dNPP/0OU+xIHJkjdeTOeBiDUbmIDFHm8qmmRIyUK1InldgrlcxL+pQlDWVOQoJDmVdEXjKvhLxZ1r6lEl8qU9pOZP3YN77xjb9IhP6v9+3btwaJR74rIuQVExMTlGlT6mmjfXYOgze+8VOn709NTR2KvP9yz549J5lWR+Rp5xzrPGjHuBhHqywiMkKZSxeUjCvaLlkP5V7Lyq+yVXfU1G9F5oi6pD5c1r4qey+JF7TPQ3rf/OY3/8uxY8e+msh8HQ/BMcWOuFmm3VaWqXci9tx8rJienm7ROjJPvTtZvrZ3796/TiQ+wwNviJzonCidz+25wWAsrSERkRG/fi+myKeYEnAJFqkx5cxnyEiOqJWviiE9Eg+OIcNKTFMPlyTKkCjP59FMY/OAGW3W9HpJvWQ+Gs49oWzqXsuNBG+Fa0/RI+7cUDRxk0fKDUdbplxLfF5OitSZBbjEsdEWNxWV7ncMIvJwosylK4ZSXyp2PuNGxAiZhOARdCVkX+vsI9WT6sPPx5En7dLP/QqUMtRLm3PZjKt/NRNOBJ78tsx4WxTOtDryrjLz8/Ptta6RPF95m035Nr3PcdVYOFZFLiJ/F8pcuuVeYi8JIuVKSHppqn0lTFK1UwL/qPKkfG4MLmccPFTXPhuv5bVr11oCInOEzjI3FuOp+ETvfO1sjuOoY6lxMSZSa0BEZAnKXH4vKPmW9ErM95Mo/yDyvhdE/xFykzmJqJsIPH206XYEzpI8onQSUXrkznfVeePclaHISWyXyJdjjCLy+4cyl99rStL3SqMiywZtJuq/Efm2758hcOSdG4bxdDuJKJzl4uLieNr90qVLyPxyyrWvnpXQWQ5vOFpHIiJLUOYiy0jE+16i7ttIvKJwZF4C54E43gLHNvuI3EmJzplR4MdTmrwReckckStzEfkglLnIMhIB82PldyL0RZ5UJzonIW4icYiUx0+xE5nz3XPKcyOAyCsyr0SeIheRD0KZiywjkTlfZxtPs0fEbQkInGidr6lVRM42n58n8QKb9rOmQ6GXyCu1hkRElqDMRZYRpsYj4NtE2kiaaJyoHOoz8orIC/YnEZm3X0NjSr2kzjppVFRE5J4oc5FlgsgZmUe+txOFLxJ1M4Ve0TeRecmcPIiw2y+npe7769evn6eNocgrIie1CiIi90CZiywjGzZs4OUzNyJ1nk5vU+pzc3NN4ETmNbXOA3Ap1yQ/isyZUm8/bbo0KXIR+TCUucgysm7dOn4b/Wok3mQeEben2EnIe9OmTe1raoDIBxE6n5HfQdxLRa7MReTDUOYiy8jmzZuvb926dTpR+F0i8Qi5TaUXrCN28gGhj4TNg3O3S95DmVOuliIi90KZiywjvBt+9+7dRyPtmzzUNppCH78cZulDcZDtBaL5SL79ItpQ5JVGRUVE7okyF1lGIuG727ZtO5Uoe66m0ZF3rVfiM/QbN26Maq3gJTFXicyReG4Exk+xK3IRuR+UucgygXgj5Tt79+59Z3Jy8hdXr169dfny5YVbt24tzs/PL/L+9Uh8MXmL586dWzx//vzizMzM+3Nzc4h8iqfZsxy/LEahi8j9spKoQUSWh4WFhVUR9qaDBw/+o9dff/2rs7Ozf7Bu3bpticw3ROgrR2UWIvT37969e5vVSPzY7t27f7F9+/Zpflt9x44dMyR+a52fad2wYcO8UheRD0KZiywjyDySXnPjxo3NU1NTTx89evTvX7x48elE39uvXbu2MVJfnTK8UIYfUpmP6Pnt9SubNm26wW+wP/bYY5cj9QuJ7C8idn5rPWVuM/U+6kJE5LdQ5iLLSP4/rUTY77333nqEngj8sch8MjKfiMy3kI/sKUekTULUic7f4+E5fkJ1YmJiDpFv3br16saNG8dvhRt1ISLyWyhzkWWG6PzOnTtr5+fnN1y/fv2Rq1evbkXkrCNz9iFzyiJzZM1n7cic6ByJM72OyJE8sneKXUQ+CGUussxUdF5Cv3Xr1kY+R2f99u3b6yoyp2xF5sgccSNwEp+Ts21ULiL3gzIX+RggOq8InYTEWSJyRD+UObIuoZP4jJwleT74JiL3gzIX+ZhA5hWlVyrJk1+SHgq9BM6SfEUuIveDMhf5GEHa90qj3Y2S9tI02i0i8qFwYRmtisjHxVKB1/ZSaStxEXkQlLmIiEjn+DpXERGRzlHmIiIinaPMRUREOkeZi4iIdI4yFxER6RxlLiIi0jnKXEREpHOUuYiISOcocxERkc5R5iIiIp2jzEVERDpHmYuIiHSOMhcREekcZS4iItI5ylxERKRzlLmIiEjnKHMREZHOUeYiIiKdo8xFREQ6R5mLiIh0jjIXERHpHGUuIiLSOcpcRESkc5S5iIhI5yhzERGRzlHmIiIinaPMRUREOkeZi4iIdI4yFxER6RxlLiIi0jnKXEREpHOUuYiISOcocxERkc5R5iIiIp2jzEVERDpHmYuIiHSOMhcREekcZS4iItI5ylxERKRzlLmIiEjnKHMREZHOUeYiIiKdo8xFREQ6R5mLiIh0jjIXERHpHGUuIiLSOcpcRESkc5S5iIhI5yhzERGRzlHmIiIinaPMRUREOkeZi4iIdI4yFxER6RxlLiIi0jnKXEREpHOUuYiISOcocxERkc5R5iIiIp2jzEVERDpHmYuIiHSOMhcREekcZS4iItI5ylxERKRzlLmIiEjnKHMREZHOUeYiIiKdo8xFREQ6R5mLiIh0jjIXERHpHGUuIiLSOcpcRESkc5S5iIhI5yhzERGRzlHmIiIinaPMRUREOkeZi4iIdI4yFxER6RxlLiIi0jnKXEREpHOUuYiISOcocxERkc5R5iIiIp2jzEVERDpHmYuIiHSOMhcREekcZS4iItI5ylxERKRzlLmIiEjnKHMREZHOUeYiIiKdo8xFREQ6R5mLiIh0jjIXERHpHGUuIiLSOcpcRESkc5S5iIhI5yhzERGRzlHmIiIinaPMRUREOkeZi4iIdI4yFxER6RxlLiIi0jnKXEREpHOUuYiISOcocxERkc5R5iIiIp2jzEVERDpHmYuIiHSOMhcREekcZS4iItI5ylxERKRzlLmIiEjnKHMREZHOUeYiIiKdo8xFREQ6R5mLiIh0jjIXERHpHGUuIiLSOcpcRESkc5S5iIhI5yhzERGRzlHmIiIinaPMRUREOkeZi4iIdI4yFxER6RxlLiIi0jnKXEREpHOUuYiISOcocxERkc5R5iIiIp2jzEVERDpHmYuIiHSOMhcREekcZS4iItI5ylxERKRzlLmIiEjnKHMREZHOUeYiIiKdo8xFREQ6R5mLiIh0jjIXERHpHGUuIiLSOcpcRESkc5S5iIhI5yhzERGRzlHmIiIinaPMRUREOkeZi4iIdI4yFxER6RxlLiIi0jnKXEREpHOUuYiISOcocxERkc5R5iIiIp2jzEVERDpHmYuIiHSOMhcREekcZS4iItI5ylxERKRzlLmIiEjnKHMREZHOUeYiIiKdo8xFREQ6R5mLiIh0jjIXERHpHGUuIiLSOcpcRESkc5S5iIhI5yhzERGRzlHmIiIinaPMRUREOkeZi4iIdI4yFxER6RxlLiIi0jnKXEREpHOUuYiISOcocxERkc5R5iIiIp2jzEVERDpHmYuIiHSOMhcREekcZS4iItI5ylxERKRzlLmIiEjnKHMREZHOUeYiIiKdo8xFRES6ZsWK/wdV0bI/7G76/gAAAABJRU5ErkJggg==;opacity=90;" parent="1" vertex="1">
          <mxGeometry x="1084" y="597" width="499" height="499" as="geometry" />
        </mxCell>
      </root>
    </mxGraphModel>
  </diagram>
</mxfile>
